<svg version="1.2" xmlns="http://www.w3.org/2000/svg" viewBox="0 0 700 700" width="700" height="700">
	<title>sadeem-svg</title>
	<defs>
		<clipPath clipPathUnits="userSpaceOnUse" id="cp1">
			<path d="m-492-246h1684v1191h-1684z"/>
		</clipPath>
		<linearGradient id="g1" x2="1" gradientUnits="userSpaceOnUse" gradientTransform="matrix(-45.979,-259.783,261.057,-46.205,153.143,776.21)">
			<stop offset="0" stop-color="#956132"/>
			<stop offset="1" stop-color="#e8b27f"/>
		</linearGradient>
		<linearGradient id="g2" x2="1" gradientUnits="userSpaceOnUse" gradientTransform="matrix(-45.979,-259.783,262.854,-46.523,174.385,772.45)">
			<stop offset="0" stop-color="#956132"/>
			<stop offset="1" stop-color="#e8b27f"/>
		</linearGradient>
		<linearGradient id="g3" x2="1" gradientUnits="userSpaceOnUse" gradientTransform="matrix(-45.979,-259.783,265.91,-47.063,179.691,771.511)">
			<stop offset="0" stop-color="#956132"/>
			<stop offset="1" stop-color="#e8b27f"/>
		</linearGradient>
		<linearGradient id="g4" x2="1" gradientUnits="userSpaceOnUse" gradientTransform="matrix(-45.979,-259.783,139.953,-24.77,191.423,769.434)">
			<stop offset="0" stop-color="#956132"/>
			<stop offset="1" stop-color="#e8b27f"/>
		</linearGradient>
		<linearGradient id="g5" x2="1" gradientUnits="userSpaceOnUse" gradientTransform="matrix(-45.979,-259.783,211.411,-37.418,215.722,765.134)">
			<stop offset="0" stop-color="#956132"/>
			<stop offset="1" stop-color="#e8b27f"/>
		</linearGradient>
		<linearGradient id="g6" x2="1" gradientUnits="userSpaceOnUse" gradientTransform="matrix(-45.979,-259.783,394.646,-69.848,248.234,759.379)">
			<stop offset="0" stop-color="#956132"/>
			<stop offset="1" stop-color="#e8b27f"/>
		</linearGradient>
		<linearGradient id="g7" x2="1" gradientUnits="userSpaceOnUse" gradientTransform="matrix(-45.979,-259.783,214.823,-38.022,303.806,749.544)">
			<stop offset="0" stop-color="#956132"/>
			<stop offset="1" stop-color="#e8b27f"/>
		</linearGradient>
		<linearGradient id="g8" x2="1" gradientUnits="userSpaceOnUse" gradientTransform="matrix(-45.979,-259.783,86.62,-15.331,330.716,744.781)">
			<stop offset="0" stop-color="#956132"/>
			<stop offset="1" stop-color="#e8b27f"/>
		</linearGradient>
		<linearGradient id="g9" x2="1" gradientUnits="userSpaceOnUse" gradientTransform="matrix(-45.979,-259.783,278.439,-49.281,347.273,741.85)">
			<stop offset="0" stop-color="#956132"/>
			<stop offset="1" stop-color="#e8b27f"/>
		</linearGradient>
		<linearGradient id="g10" x2="1" gradientUnits="userSpaceOnUse" gradientTransform="matrix(-45.979,-259.783,84.198,-14.902,369.719,737.877)">
			<stop offset="0" stop-color="#956132"/>
			<stop offset="1" stop-color="#e8b27f"/>
		</linearGradient>
		<linearGradient id="g11" x2="1" gradientUnits="userSpaceOnUse" gradientTransform="matrix(-45.979,-259.783,241.807,-42.797,396.466,733.144)">
			<stop offset="0" stop-color="#956132"/>
			<stop offset="1" stop-color="#e8b27f"/>
		</linearGradient>
		<linearGradient id="g12" x2="1" gradientUnits="userSpaceOnUse" gradientTransform="matrix(-45.979,-259.783,131.838,-23.334,427.339,727.679)">
			<stop offset="0" stop-color="#956132"/>
			<stop offset="1" stop-color="#e8b27f"/>
		</linearGradient>
		<linearGradient id="g13" x2="1" gradientUnits="userSpaceOnUse" gradientTransform="matrix(-45.979,-259.783,93.842,-16.609,442.088,725.069)">
			<stop offset="0" stop-color="#956132"/>
			<stop offset="1" stop-color="#e8b27f"/>
		</linearGradient>
		<linearGradient id="g14" x2="1" gradientUnits="userSpaceOnUse" gradientTransform="matrix(-45.979,-259.783,170.818,-30.233,478.705,718.588)">
			<stop offset="0" stop-color="#956132"/>
			<stop offset="1" stop-color="#e8b27f"/>
		</linearGradient>
		<linearGradient id="g15" x2="1" gradientUnits="userSpaceOnUse" gradientTransform="matrix(-45.979,-259.783,400.579,-70.899,513.327,712.46)">
			<stop offset="0" stop-color="#956132"/>
			<stop offset="1" stop-color="#e8b27f"/>
		</linearGradient>
		<linearGradient id="g16" x2="1" gradientUnits="userSpaceOnUse" gradientTransform="matrix(-45.979,-259.783,394.646,-69.848,556.082,704.893)">
			<stop offset="0" stop-color="#956132"/>
			<stop offset="1" stop-color="#e8b27f"/>
		</linearGradient>
		<linearGradient id="g17" x2="1" gradientUnits="userSpaceOnUse" gradientTransform="matrix(-45.979,-259.783,143.144,-25.335,593.231,698.318)">
			<stop offset="0" stop-color="#956132"/>
			<stop offset="1" stop-color="#e8b27f"/>
		</linearGradient>
		<linearGradient id="g18" x2="1" gradientUnits="userSpaceOnUse" gradientTransform="matrix(-45.979,-259.783,281.096,-49.751,622.621,693.116)">
			<stop offset="0" stop-color="#956132"/>
			<stop offset="1" stop-color="#e8b27f"/>
		</linearGradient>
		<linearGradient id="g19" x2="1" gradientUnits="userSpaceOnUse" gradientTransform="matrix(-45.979,-259.783,165.798,-29.345,122.991,781.546)">
			<stop offset="0" stop-color="#956132"/>
			<stop offset="1" stop-color="#e8b27f"/>
		</linearGradient>
		<linearGradient id="g20" x2="1" gradientUnits="userSpaceOnUse" gradientTransform="matrix(-45.979,-259.783,285.528,-50.536,144.483,777.742)">
			<stop offset="0" stop-color="#956132"/>
			<stop offset="1" stop-color="#e8b27f"/>
		</linearGradient>
		<linearGradient id="g21" x2="1" gradientUnits="userSpaceOnUse" gradientTransform="matrix(-45.979,-259.783,78.435,-13.882,166.783,773.795)">
			<stop offset="0" stop-color="#956132"/>
			<stop offset="1" stop-color="#e8b27f"/>
		</linearGradient>
		<linearGradient id="g22" x2="1" gradientUnits="userSpaceOnUse" gradientTransform="matrix(-45.979,-259.783,533.864,-94.489,179.166,771.604)">
			<stop offset="0" stop-color="#956132"/>
			<stop offset="1" stop-color="#e8b27f"/>
		</linearGradient>
		<linearGradient id="g23" x2="1" gradientUnits="userSpaceOnUse" gradientTransform="matrix(-45.979,-259.783,533.864,-94.489,195.966,768.63)">
			<stop offset="0" stop-color="#956132"/>
			<stop offset="1" stop-color="#e8b27f"/>
		</linearGradient>
		<linearGradient id="g24" x2="1" gradientUnits="userSpaceOnUse" gradientTransform="matrix(-45.979,-259.783,533.864,-94.489,212.766,765.657)">
			<stop offset="0" stop-color="#956132"/>
			<stop offset="1" stop-color="#e8b27f"/>
		</linearGradient>
		<linearGradient id="g25" x2="1" gradientUnits="userSpaceOnUse" gradientTransform="matrix(-45.979,-259.783,535.612,-94.798,229.566,762.683)">
			<stop offset="0" stop-color="#956132"/>
			<stop offset="1" stop-color="#e8b27f"/>
		</linearGradient>
		<linearGradient id="g26" x2="1" gradientUnits="userSpaceOnUse" gradientTransform="matrix(-45.979,-259.783,533.864,-94.489,246.364,759.71)">
			<stop offset="0" stop-color="#956132"/>
			<stop offset="1" stop-color="#e8b27f"/>
		</linearGradient>
		<linearGradient id="g27" x2="1" gradientUnits="userSpaceOnUse" gradientTransform="matrix(-45.979,-259.783,533.864,-94.489,263.164,756.737)">
			<stop offset="0" stop-color="#956132"/>
			<stop offset="1" stop-color="#e8b27f"/>
		</linearGradient>
		<linearGradient id="g28" x2="1" gradientUnits="userSpaceOnUse" gradientTransform="matrix(-45.979,-259.783,332.107,-58.78,286.227,752.655)">
			<stop offset="0" stop-color="#956132"/>
			<stop offset="1" stop-color="#e8b27f"/>
		</linearGradient>
		<linearGradient id="g29" x2="1" gradientUnits="userSpaceOnUse" gradientTransform="matrix(-45.979,-259.783,142.53,-25.226,308.647,748.687)">
			<stop offset="0" stop-color="#956132"/>
			<stop offset="1" stop-color="#e8b27f"/>
		</linearGradient>
		<linearGradient id="g30" x2="1" gradientUnits="userSpaceOnUse" gradientTransform="matrix(-45.979,-259.783,87.728,-15.527,323.187,746.113)">
			<stop offset="0" stop-color="#956132"/>
			<stop offset="1" stop-color="#e8b27f"/>
		</linearGradient>
		<linearGradient id="g31" x2="1" gradientUnits="userSpaceOnUse" gradientTransform="matrix(-45.979,-259.783,318.094,-56.299,359.812,739.631)">
			<stop offset="0" stop-color="#956132"/>
			<stop offset="1" stop-color="#e8b27f"/>
		</linearGradient>
		<linearGradient id="g32" x2="1" gradientUnits="userSpaceOnUse" gradientTransform="matrix(-45.979,-259.783,254.697,-45.079,395.396,733.333)">
			<stop offset="0" stop-color="#956132"/>
			<stop offset="1" stop-color="#e8b27f"/>
		</linearGradient>
		<linearGradient id="g33" x2="1" gradientUnits="userSpaceOnUse" gradientTransform="matrix(-45.979,-259.783,157.094,-27.804,423.202,728.411)">
			<stop offset="0" stop-color="#956132"/>
			<stop offset="1" stop-color="#e8b27f"/>
		</linearGradient>
		<linearGradient id="g34" x2="1" gradientUnits="userSpaceOnUse" gradientTransform="matrix(-45.979,-259.783,78.435,-13.882,442.26,725.038)">
			<stop offset="0" stop-color="#956132"/>
			<stop offset="1" stop-color="#e8b27f"/>
		</linearGradient>
		<linearGradient id="g35" x2="1" gradientUnits="userSpaceOnUse" gradientTransform="matrix(-45.979,-259.783,533.864,-94.489,454.642,722.847)">
			<stop offset="0" stop-color="#956132"/>
			<stop offset="1" stop-color="#e8b27f"/>
		</linearGradient>
		<linearGradient id="g36" x2="1" gradientUnits="userSpaceOnUse" gradientTransform="matrix(-45.979,-259.783,533.864,-94.489,471.442,719.873)">
			<stop offset="0" stop-color="#956132"/>
			<stop offset="1" stop-color="#e8b27f"/>
		</linearGradient>
		<linearGradient id="g37" x2="1" gradientUnits="userSpaceOnUse" gradientTransform="matrix(-45.979,-259.783,535.612,-94.798,488.242,716.9)">
			<stop offset="0" stop-color="#956132"/>
			<stop offset="1" stop-color="#e8b27f"/>
		</linearGradient>
		<linearGradient id="g38" x2="1" gradientUnits="userSpaceOnUse" gradientTransform="matrix(-45.979,-259.783,535.612,-94.798,505.042,713.927)">
			<stop offset="0" stop-color="#956132"/>
			<stop offset="1" stop-color="#e8b27f"/>
		</linearGradient>
		<linearGradient id="g39" x2="1" gradientUnits="userSpaceOnUse" gradientTransform="matrix(-45.979,-259.783,533.864,-94.489,521.842,710.953)">
			<stop offset="0" stop-color="#956132"/>
			<stop offset="1" stop-color="#e8b27f"/>
		</linearGradient>
		<linearGradient id="g40" x2="1" gradientUnits="userSpaceOnUse" gradientTransform="matrix(-45.979,-259.783,533.864,-94.489,538.642,707.98)">
			<stop offset="0" stop-color="#956132"/>
			<stop offset="1" stop-color="#e8b27f"/>
		</linearGradient>
		<linearGradient id="g41" x2="1" gradientUnits="userSpaceOnUse" gradientTransform="matrix(-45.979,-259.783,205.808,-36.426,559.468,704.294)">
			<stop offset="0" stop-color="#956132"/>
			<stop offset="1" stop-color="#e8b27f"/>
		</linearGradient>
		<linearGradient id="g42" x2="1" gradientUnits="userSpaceOnUse" gradientTransform="matrix(-45.979,-259.783,310.07,-54.879,585.234,699.733)">
			<stop offset="0" stop-color="#956132"/>
			<stop offset="1" stop-color="#e8b27f"/>
		</linearGradient>
		<linearGradient id="g43" x2="1" gradientUnits="userSpaceOnUse" gradientTransform="matrix(-45.979,-259.783,130.967,-23.18,605.913,696.073)">
			<stop offset="0" stop-color="#956132"/>
			<stop offset="1" stop-color="#e8b27f"/>
		</linearGradient>
		<linearGradient id="g44" x2="1" gradientUnits="userSpaceOnUse" gradientTransform="matrix(-45.979,-259.783,142.53,-25.226,621.064,693.392)">
			<stop offset="0" stop-color="#956132"/>
			<stop offset="1" stop-color="#e8b27f"/>
		</linearGradient>
		<linearGradient id="g45" x2="1" gradientUnits="userSpaceOnUse" gradientTransform="matrix(-1.724,-708.654,685.704,-1.668,396.982,757.328)">
			<stop offset="0" stop-color="#956132"/>
			<stop offset="1" stop-color="#e8b27f"/>
		</linearGradient>
		<linearGradient id="g46" x2="1" gradientUnits="userSpaceOnUse" gradientTransform="matrix(-1.724,-708.654,685.704,-1.668,396.939,757.328)">
			<stop offset="0" stop-color="#956132"/>
			<stop offset="1" stop-color="#e8b27f"/>
		</linearGradient>
		<linearGradient id="g47" x2="1" gradientUnits="userSpaceOnUse" gradientTransform="matrix(-1.724,-708.654,685.708,-1.668,396.893,757.328)">
			<stop offset="0" stop-color="#956132"/>
			<stop offset="1" stop-color="#e8b27f"/>
		</linearGradient>
		<linearGradient id="g48" x2="1" gradientUnits="userSpaceOnUse" gradientTransform="matrix(-1.724,-708.654,685.708,-1.668,397.026,757.328)">
			<stop offset="0" stop-color="#956132"/>
			<stop offset="1" stop-color="#e8b27f"/>
		</linearGradient>
		<linearGradient id="g49" x2="1" gradientUnits="userSpaceOnUse" gradientTransform="matrix(-1.724,-708.654,253.157,-0.616,290.742,757.586)">
			<stop offset="0" stop-color="#956132"/>
			<stop offset="1" stop-color="#e8b27f"/>
		</linearGradient>
		<linearGradient id="g50" x2="1" gradientUnits="userSpaceOnUse" gradientTransform="matrix(-1.724,-708.654,21.613,-0.053,264.98,757.649)">
			<stop offset="0" stop-color="#956132"/>
			<stop offset="1" stop-color="#e8b27f"/>
		</linearGradient>
		<linearGradient id="g51" x2="1" gradientUnits="userSpaceOnUse" gradientTransform="matrix(-1.724,-708.654,20.373,-0.05,276.045,757.622)">
			<stop offset="0" stop-color="#956132"/>
			<stop offset="1" stop-color="#e8b27f"/>
		</linearGradient>
		<linearGradient id="g52" x2="1" gradientUnits="userSpaceOnUse" gradientTransform="matrix(-1.724,-708.654,20.327,-0.049,287.103,757.595)">
			<stop offset="0" stop-color="#956132"/>
			<stop offset="1" stop-color="#e8b27f"/>
		</linearGradient>
		<linearGradient id="g53" x2="1" gradientUnits="userSpaceOnUse" gradientTransform="matrix(-1.724,-708.654,894.68,-2.177,326.73,757.499)">
			<stop offset="0" stop-color="#956132"/>
			<stop offset="1" stop-color="#e8b27f"/>
		</linearGradient>
		<linearGradient id="g54" x2="1" gradientUnits="userSpaceOnUse" gradientTransform="matrix(-1.724,-708.654,335.479,-0.816,396.994,757.328)">
			<stop offset="0" stop-color="#956132"/>
			<stop offset="1" stop-color="#e8b27f"/>
		</linearGradient>
		<linearGradient id="g55" x2="1" gradientUnits="userSpaceOnUse" gradientTransform="matrix(-1.724,-708.654,693.608,-1.687,319.704,757.516)">
			<stop offset="0" stop-color="#956132"/>
			<stop offset="1" stop-color="#e8b27f"/>
		</linearGradient>
		<linearGradient id="g56" x2="1" gradientUnits="userSpaceOnUse" gradientTransform="matrix(-1.724,-708.654,1188.159,-2.891,475.049,757.138)">
			<stop offset="0" stop-color="#956132"/>
			<stop offset="1" stop-color="#e8b27f"/>
		</linearGradient>
		<linearGradient id="g57" x2="1" gradientUnits="userSpaceOnUse" gradientTransform="matrix(-1.724,-708.654,243.935,-0.593,196.353,757.816)">
			<stop offset="0" stop-color="#956132"/>
			<stop offset="1" stop-color="#e8b27f"/>
		</linearGradient>
		<linearGradient id="g58" x2="1" gradientUnits="userSpaceOnUse" gradientTransform="matrix(-1.724,-708.654,226.016,-0.55,216.007,757.768)">
			<stop offset="0" stop-color="#956132"/>
			<stop offset="1" stop-color="#e8b27f"/>
		</linearGradient>
		<linearGradient id="g59" x2="1" gradientUnits="userSpaceOnUse" gradientTransform="matrix(-1.724,-708.654,714.01,-1.737,351.607,757.438)">
			<stop offset="0" stop-color="#956132"/>
			<stop offset="1" stop-color="#e8b27f"/>
		</linearGradient>
	</defs>
	<style>
		.s0 { fill: url(#g1) } 
		.s1 { fill: url(#g2) } 
		.s2 { fill: url(#g3) } 
		.s3 { fill: url(#g4) } 
		.s4 { fill: url(#g5) } 
		.s5 { fill: url(#g6) } 
		.s6 { fill: url(#g7) } 
		.s7 { fill: url(#g8) } 
		.s8 { fill: url(#g9) } 
		.s9 { fill: url(#g10) } 
		.s10 { fill: url(#g11) } 
		.s11 { fill: url(#g12) } 
		.s12 { fill: url(#g13) } 
		.s13 { fill: url(#g14) } 
		.s14 { fill: url(#g15) } 
		.s15 { fill: url(#g16) } 
		.s16 { fill: url(#g17) } 
		.s17 { fill: url(#g18) } 
		.s18 { fill: url(#g19) } 
		.s19 { fill: url(#g20) } 
		.s20 { fill: url(#g21) } 
		.s21 { fill: url(#g22) } 
		.s22 { fill: url(#g23) } 
		.s23 { fill: url(#g24) } 
		.s24 { fill: url(#g25) } 
		.s25 { fill: url(#g26) } 
		.s26 { fill: url(#g27) } 
		.s27 { fill: url(#g28) } 
		.s28 { fill: url(#g29) } 
		.s29 { fill: url(#g30) } 
		.s30 { fill: url(#g31) } 
		.s31 { fill: url(#g32) } 
		.s32 { fill: url(#g33) } 
		.s33 { fill: url(#g34) } 
		.s34 { fill: url(#g35) } 
		.s35 { fill: url(#g36) } 
		.s36 { fill: url(#g37) } 
		.s37 { fill: url(#g38) } 
		.s38 { fill: url(#g39) } 
		.s39 { fill: url(#g40) } 
		.s40 { fill: url(#g41) } 
		.s41 { fill: url(#g42) } 
		.s42 { fill: url(#g43) } 
		.s43 { fill: url(#g44) } 
		.s44 { fill: #122b43 } 
		.s45 { fill: url(#g45) } 
		.s46 { fill: url(#g46) } 
		.s47 { fill: url(#g47) } 
		.s48 { fill: url(#g48) } 
		.s49 { fill: url(#g49) } 
		.s50 { fill: url(#g50) } 
		.s51 { fill: url(#g51) } 
		.s52 { fill: url(#g52) } 
		.s53 { fill: url(#g53) } 
		.s54 { fill: url(#g54) } 
		.s55 { mix-blend-mode: multiply;fill: url(#g55) } 
		.s56 { mix-blend-mode: multiply;fill: url(#g56) } 
		.s57 { mix-blend-mode: multiply;fill: url(#g57) } 
		.s58 { fill: url(#g58) } 
		.s59 { fill: url(#g59) } 
	</style>
	<g id="Clip-Path: Page 1" clip-path="url(#cp1)">
		<g id="Page 1">
			<path id="Path 1" fill-rule="evenodd" class="s0" d="m120.4 544.4c7.9 0 11.5 5.1 11.5 13.1v8.6h4.2v5.9h-15.3c-9 0-12.9-4.2-13.5-11.1h-1.1c-2.9 0-3.7 1.9-2.9 7.3l2.6 18.7h-6.5l-2.5-18.2c-1.1-8.1 1.4-13.7 9.5-13.7h1.2c1.2-6 5.5-10.6 12.8-10.6zm1.1 21.7h3.8v-7.6c0-5.8-2-8.2-5.4-8.2-3.8 0-6 3.3-6 7.8 0 5.3 2.3 8 7.6 8z"/>
			<path id="Path 2" class="s1" d="m135.4 572h6v-5.9h-6z"/>
			<path id="Path 3" class="s2" d="m140.8 572h6.1v-5.9h-6.1z"/>
			<path id="Path 4" class="s3" d="m155.8 545.1v21h-9.5v5.9h16.2v-26.9zm-0.1 35.5c0 2.1 1.4 3.9 3.3 3.9 1.9 0 3.4-1.8 3.4-3.9 0-2.2-1.5-3.9-3.4-3.9-1.9 0-3.3 1.8-3.3 3.9zm-8.4 0c0 2.1 1.4 3.9 3.3 3.9 1.9 0 3.4-1.8 3.4-3.9 0-2.2-1.5-3.9-3.4-3.9-1.9 0-3.3 1.8-3.3 3.9z"/>
			<path id="Path 5" class="s4" d="m171.7 550.1c7.9 2.2 11.6 7.5 11.9 16h-15v5.9h24.8v-5.9h-3.3c-0.6-12.8-6.4-19.2-16.8-22.3z"/>
			<path id="Path 6" class="s5" d="m225.7 543.9c0.9 4.3 1.5 9.6 1.5 15.3 0 1.8-0.1 4.6-0.3 6.9h-1.8c-4.5 0-5.6-1.6-5.6-6.4v-13.4h-6.4v13.6c0 4.2-0.8 6.6-3.7 6.6-3 0-3.9-2.3-3.9-6.6v-11.3h-6.7v10.3c0 5.7-1.2 7.2-4.5 7.2h-1.6v5.9h1.5c3.8 0 5.9-1.5 6.8-4.2 0.8 2.9 3.5 4.7 7.2 4.7 3.2 0 6.1-1.5 7.3-4.7 1.1 3.1 3.8 4.2 8.2 4.2h9.4c0.5-4.1 0.8-9.1 0.8-13.3 0-5.7-0.7-11.3-1.6-15.8z"/>
			<path id="Path 7" class="s6" d="m271 536.9c0 2.2 1.5 3.9 3.3 3.9 1.9 0 3.4-1.8 3.4-3.9 0-2.2-1.5-3.9-3.4-3.9-1.8 0-3.3 1.8-3.3 3.9zm-8.4 0c0 2.2 1.4 3.9 3.3 3.9 1.9 0 3.4-1.8 3.4-3.9 0-2.2-1.5-3.9-3.4-3.9-1.9 0-3.3 1.8-3.3 3.9zm-9 9.2c-0.8 2.4-1.3 5.9-1.3 9 0 10.4 4.8 16.9 18.6 16.9h14.3v-26.9h-6.7v21h-6.9c-9.5 0-12.6-3.8-12.6-11.9 0-3 0.7-6.8 1.7-9.4z"/>
			<path id="Path 8" class="s7" d="m293.2 572h6.7v-40.3h-6.7z"/>
			<path id="Path 9" class="s8" d="m309.2 562.6c0 1.7 0.7 3.2 1.8 3.9-1.1-0.3-2.9-0.4-4.7-0.4v5.9h19.9v-5.9h-4.5c-4.3 0-5.8-1.6-5.8-3.8 0-2 1.4-3.4 4-3.4 1.8 0 3.6 0.4 4.1 0.5l0.8-6c-0.6-0.1-2.5-0.4-4.6-0.4-7.9 0-11 4.8-11 9.6z"/>
			<path id="Path 10" class="s9" d="m333.5 531.7v40.3h11.7v-5.9h-5.1v-34.4z"/>
			<path id="Path 11" class="s10" d="m364.7 529.1c0 2 1.4 3.6 3.1 3.6 1.8 0 3.1-1.6 3.1-3.6 0-2-1.3-3.6-3.1-3.6-1.7 0-3.1 1.6-3.1 3.6zm4 7.8c0 2.2 1.4 3.9 3.4 3.9 1.8 0 3.3-1.8 3.3-3.9 0-2.2-1.5-3.9-3.3-3.9-2 0-3.4 1.8-3.4 3.9zm-8.4 0c0 2.2 1.5 3.9 3.3 3.9 1.9 0 3.4-1.8 3.4-3.9 0-2.2-1.5-3.9-3.4-3.9-1.8 0-3.3 1.8-3.3 3.9zm17.2 7c0.9 4.3 1.5 9.6 1.5 15.3 0 1.8-0.2 4.6-0.4 6.9h-1.7c-4.5 0-5.6-1.6-5.6-6.4v-13.4h-6.4v13.6c0 4.2-0.8 6.6-3.7 6.6-3 0-3.9-2.3-3.9-6.6v-11.3h-6.7v10.3c0 5.7-1.2 7.2-4.5 7.2h-1.7v5.9h1.6c3.8 0 5.8-1.5 6.8-4.2 0.8 2.9 3.4 4.7 7.1 4.7 3.2 0 6.2-1.5 7.4-4.7 1.1 3.1 3.8 4.2 8.2 4.2h14.9v-5.9h-5c0.2-2.6 0.3-5.1 0.3-7.4 0-5.7-0.7-11.3-1.6-15.8z"/>
			<path id="Path 12" class="s11" d="m396.6 536.4c0 2.2 1.5 3.9 3.5 3.9 1.9 0 3.5-1.7 3.5-3.9 0-2.2-1.6-3.9-3.5-3.9-2 0-3.5 1.7-3.5 3.9zm0.1 8.7v21h-7.1v5.9h13.8v-26.9z"/>
			<path id="Path 13" class="s12" d="m411.5 572h6.7v-40.3h-6.7zm-2.3 9.5c0 0.9 0.3 1.5 0.7 1.9-0.7-0.2-1.6-0.2-2.5-0.2v4.1h12.8v-4.1h-3c-2.3 0-3.2-0.7-3.2-1.8 0-1 0.8-1.7 2.2-1.7 1.1 0 2.1 0.3 2.5 0.3l0.6-4.1c-0.4-0.1-1.7-0.3-3-0.3-4.9 0-7.1 2.8-7.1 5.9z"/>
			<path id="Path 14" fill-rule="evenodd" class="s13" d="m453.7 533c1.9 0 3.4 1.7 3.4 3.9 0 2.1-1.5 3.9-3.4 3.9-1.9 0-3.3-1.7-3.3-3.9 0-2.1 1.4-3.9 3.3-3.9zm-8.4 0c1.9 0 3.4 1.7 3.4 3.9 0 2.1-1.5 3.9-3.4 3.9-1.9 0-3.3-1.7-3.3-3.9 0-2.1 1.4-3.9 3.3-3.9zm4.9 11.4c6 0 10.6 2 10.6 2v19.7h4.9v5.9h-15.4c-9.9 0-13.6-5.1-13.6-13.3 0-7.4 4.2-14.3 13.5-14.3zm0.8 21.7h3.3v-14.7c0 0-2-1.1-4.8-1.1-3.8 0-6.1 3.3-6.1 7.8 0 5.2 2.3 8 7.6 8z"/>
			<path id="Path 15" class="s14" d="m498 543.9c0.9 4.3 1.5 9.6 1.5 15.3 0 1.8-0.1 4.6-0.3 6.9h-1.8c-4.5 0-5.6-1.6-5.6-6.4v-13.4h-6.4v13.6c0 4.2-0.8 6.6-3.7 6.6-3 0-3.9-2.3-3.9-6.6v-11.3h-6.7v10.3c0 5.7-1.2 7.2-4.5 7.2h-1.6v5.9h1.5c3.8 0 5.9-1.5 6.8-4.2 0.8 2.9 3.5 4.7 7.2 4.7 3.2 0 6.1-1.5 7.3-4.7 1.1 3.1 3.8 4.2 8.2 4.2h14.9v-5.9h-5c0.2-2.6 0.3-5.1 0.3-7.4 0-5.7-0.7-11.3-1.6-15.8z"/>
			<path id="Path 16" class="s15" d="m543.2 543.9c0.9 4.3 1.5 9.6 1.5 15.3 0 1.8-0.1 4.6-0.4 6.9h-1.7c-4.5 0-5.6-1.6-5.6-6.4v-13.4h-6.4v13.6c0 4.2-0.8 6.6-3.7 6.6-3 0-3.9-2.3-3.9-6.6v-11.3h-6.7v10.3c0 5.7-1.2 7.2-4.5 7.2h-1.6v5.9h1.5c3.8 0 5.9-1.5 6.8-4.2 0.8 2.9 3.5 4.7 7.2 4.7 3.1 0 6.1-1.5 7.3-4.7 1.1 3.1 3.8 4.2 8.2 4.2h9.4c0.5-4.1 0.8-9.1 0.8-13.3 0-5.7-0.7-11.3-1.6-15.8z"/>
			<path id="Path 17" fill-rule="evenodd" class="s16" d="m572.2 527.7c1.3 0 2.6 0.2 3 0.2l-0.7 4.3c-0.2 0-1.3-0.3-2.5-0.3-1.6 0-2.4 0.8-2.4 2 0 1.2 0.9 2.2 3.5 2.2h2.9v4.2h-13.1v-4.2c1.1 0 2.2 0 2.9 0.2-0.6-0.4-1-1.4-1-2.2 0-3.2 2-6.4 7.4-6.4zm-2 16.7c6 0 10.6 2 10.6 2v19.7h5v5.9h-5v0.1c0 7.9-4.5 14.3-15.8 14.3-3.8 0-7.7-0.7-7.7-0.7l0.4-6.2c0 0 3.9 1 7.9 1 5.2 0 8.7-2.3 8.7-7.6v-0.9h-3.9c-9.9 0-13.6-5.1-13.6-13.3 0-7.4 4.1-14.3 13.4-14.3zm0.9 21.7h3.2v-14.7c0 0-1.9-1.1-4.8-1.1-3.8 0-6 3.3-6 7.8 0 5.2 2.3 8 7.6 8z"/>
			<path id="Path 18" fill-rule="evenodd" class="s17" d="m602.8 544.4c8.1 0 11.7 5.3 11.7 13.6v14h-11.6c-6 0-8.9-1.6-10.4-4.4-1.3 3-3.7 4.4-6.7 4.4h-0.8v-5.9h1c2.5 0 3.8-1.7 3.8-6.9 0-8.2 4.5-14.8 13-14.8zm0.8 21.7h4.3v-7.2c0-6-1.9-8.6-5.6-8.6-3.7 0-5.9 3.4-5.9 8.2 0 5 2 7.6 7.2 7.6z"/>
			<path id="Path 19" fill-rule="evenodd" class="s18" d="m99.9 607.4q1.4 0 2.3 1.1 1 1 1 2.6 0 1.5-1 2.6-0.9 1.1-2.3 1.1-1.4 0-2.4-1.1-0.9-1.1-0.9-2.6 0-1.6 0.9-2.6 1-1.1 2.4-1.1zm-7.6 0q1.3 0 2.3 1.1 0.9 1 0.9 2.6 0 1.5-0.9 2.6-1 1.1-2.3 1.1-1.5 0-2.4-1.1-1-1.1-1-2.6 0-1.6 1-2.6 0.9-1.1 2.4-1.1zm2.2 10.1q1.7 0 3.4 0.3 1.7 0.3 3.2 0.6 1.4 0.3 2.9 0.7v14.4q0 0.4 0.3 0.7 0.3 0.2 0.6 0.2h3.6v6.2h-4.4q-1.4 0-2.3-0.6-0.9-0.6-1.5-1.4-0.9 0.8-2.3 1.5-1.4 0.8-3.8 0.8-1.5 0-3.2-0.4-1.7-0.5-3.1-1.8-1.3-1.3-2.2-3.6-0.8-2.4-0.8-6.3 0-2.3 0.5-4.4 0.5-2.1 1.6-3.6 1.2-1.5 3-2.4 1.8-0.9 4.5-0.9zm0.1 17.4q0.8 0 1.5-0.2 0.7-0.2 1.2-0.5 0.5-0.3 1-0.7v-9.7q-0.9-0.3-1.8-0.3-1-0.1-1.6-0.1-0.9 0-1.7 0.3-0.8 0.2-1.4 0.8-0.6 0.6-0.9 1.7-0.4 1.1-0.4 2.7 0 3.2 1.1 4.6 1.1 1.4 3 1.4z"/>
			<path id="Path 20" fill-rule="evenodd" class="s19" d="m121.7 618.1q1.2 0 2.6 0.3 1.5 0.2 2.9 0.6 1.3 0.4 2.8 0.8v13.7q0 1.6-0.3 3.1-0.2 1.5-1 2.7-0.7 1.2-2.1 2-1.4 0.7-3.6 0.7-0.9 0-2.3-0.2-1.5-0.3-2.6-0.5-1.1-0.3-2.6-0.7h-8.8v-6.2h4.3q-0.2-1-0.4-2.3-0.2-1.2-0.2-2.6 0-2.6 0.8-4.7 0.8-2.1 2.3-3.5 1.4-1.5 3.5-2.4 2.1-0.8 4.7-0.8zm1.2 17.9q0.7 0 1.1-0.5 0.5-0.5 0.5-1.6v-9.2q-0.5-0.2-1.2-0.3-0.7-0.1-1.5-0.1-1.5 0-2.6 0.5-1.1 0.5-1.8 1.2-0.8 0.8-1.1 1.8-0.4 1-0.4 2 0 0.9 0.1 1.8 0.1 0.8 0.2 1.5 0.2 0.8 0.3 1.5 0.8 0.2 2.3 0.6 1.6 0.4 2.5 0.6 0.9 0.2 1.6 0.2z"/>
			<path id="Path 21" class="s20" d="m136 605.8v23.2q0 2.7 0.5 4.9 0.4 2.1 1.5 3.6 1.1 1.5 3 2.3 1.8 0.8 4.7 0.8h2v-6.2h-2q-2.1 0-3-0.9-1-1-1-2.8v-22.3q0-2.6-2.2-2.6z"/>
			<path id="Path 22" class="s21" d="m146.3 640.6h18.3v-6.2h-18.3z"/>
			<path id="Path 23" class="s22" d="m163.6 640.6h18.3v-6.2h-18.3z"/>
			<path id="Path 24" class="s23" d="m180.9 640.6h18.3v-6.2h-18.3z"/>
			<path id="Path 25" class="s24" d="m198.2 640.6h18.4v-6.2h-18.4z"/>
			<path id="Path 26" class="s25" d="m215.6 640.6h18.3v-6.2h-18.3z"/>
			<path id="Path 27" class="s26" d="m232.9 640.6h18.3v-6.2h-18.3z"/>
			<path id="Path 28" fill-rule="evenodd" class="s27" d="m266 617.5q2.1 0 4.1 0.6 2 0.6 3.5 2 1.5 1.4 2.4 3.5 0.9 2.2 0.9 5.1l-4.3 5.7h9.4v6.2h-13.3q-1.1 0-1.9-0.6-0.8-0.6-0.9-1.5-0.1 1-0.9 1.5-0.8 0.6-1.6 0.6h-13.7v-6.2h9.4l-4.2-5.7q0-2.8 0.9-4.9 1-2.1 2.5-3.5 1.6-1.4 3.6-2.1 2-0.7 4.1-0.7zm-0.1 16.7l5.4-7.2q-0.1-0.7-0.5-1.3-0.4-0.7-1-1.2-0.7-0.6-1.6-1-1-0.3-2.2-0.3-1.2 0-2.2 0.4-1 0.3-1.7 0.9-0.7 0.6-1.1 1.3-0.4 0.7-0.6 1.2z"/>
			<path id="Path 29" class="s28" d="m289.3 605.8q-2.3 0-2.3 2.6v22.2q0 1.9-0.9 2.8-1 1-3.1 1h-2.8v6.2h2.8q2.9 0 4.8-0.8 1.8-0.8 2.9-2.3 1.2-1.5 1.6-3.7 0.4-2.1 0.4-4.8v-23.2z"/>
			<path id="Path 30" class="s29" d="m300.8 605.8q-2.2 0-2.2 2.6v32.2h3.4q2.3 0 2.3-2.6v-32.2z"/>
			<path id="Path 31" class="s30" d="m340.6 613.5q-1 1.1-1 2.6 0 1.6 1 2.6 1 1.1 2.3 1.1 1.4 0 2.4-1.1 0.9-1 0.9-2.6 0-1.5-0.9-2.6-1-1.1-2.4-1.1-1.3 0-2.3 1.1zm-7.7 0q-1 1.1-1 2.6 0 1.6 1 2.6 1 1.1 2.4 1.1 1.3 0 2.3-1.1 1-1 1-2.6 0-1.5-1-2.6-1-1.1-2.3-1.1-1.4 0-2.4 1.1zm21 5.8q-2.3 0-2.3 2.6v8.2q0 2.1-0.7 3.2-0.7 1.1-3 1.1h-14.2q-1.3 0-2.4-0.2-1.2-0.2-2.1-0.8-0.9-0.5-1.5-1.5-0.5-0.9-0.5-2.4 0-0.8 0.1-1.4 0.1-0.6 0.3-2 0.3-1.4 0.1-2-0.2-0.6-1.1-1-1.6-0.5-3.4-1.1-0.4 1.1-0.7 2.3-0.3 1.2-0.5 2.7-0.2 1.4-0.2 3 0 2.1 0.6 4 0.6 1.9 1.8 3.4 1.3 1.5 3.3 2.3 2 0.9 4.9 0.9h15.3q2.9 0 4.8-0.8 1.9-0.8 2.9-2.1 1.1-1.4 1.5-3.4 0.4-1.9 0.4-4.3v-10.7z"/>
			<path id="Path 32" class="s31" d="m386 605.8q-2.2 0-2.2 2.7v22.1q0 1.9-1 2.8-0.9 1-3 1h-2.8v-18.9h-3.4q-2.3 0-2.3 2.6v16.3h-6.9q-2.1 0-2.1 2.7v3.5h17.6q2.8 0 4.7-0.8 1.8-0.8 2.9-2.3 1.1-1.5 1.5-3.6 0.5-2.2 0.5-4.9v-23.2z"/>
			<path id="Path 33" fill-rule="evenodd" class="s32" d="m406.4 618.1q2.3 0 4.4 0.6 2.2 0.5 4 1.1v19.9q0 4.9-0.6 7.3-0.6 2.4-1.8 3.9-1.1 1.4-2.9 2-1.7 0.6-4.1 0.6-0.4 0-1.1 0-0.7-0.1-1.4-0.2-0.8 0-1.4-0.2-0.7-0.1-1.2-0.3-0.9-0.4-1.3-1.1-0.5-0.6-0.1-2l0.6-3.3q1.4 0.4 3 0.7 1.5 0.3 2.9 0.3 1.3 0 2.1-0.5 0.8-0.5 1.2-1.4 0.3-0.8 0.4-1.9 0.1-1 0.1-3.3-0.6 0.2-1.3 0.3-0.8 0.1-1.7 0.1-1.7 0-3.6-0.4-1.9-0.4-3.6-1.5-1.7-1.1-2.7-3.3-0.9-2.3-0.9-5.8 0-3.2 0.8-5.5 0.9-2.3 2.4-3.6 1.6-1.3 3.6-1.9 2-0.6 4.2-0.6zm-0.1 16.6q1.1 0 1.7-0.1 0.7-0.1 1.1-0.3v-10q-0.6-0.2-1.4-0.3-0.8-0.1-1.5-0.1-2.4 0-3.7 1.3-1.4 1.2-1.4 4.3 0 1.5 0.3 2.7 0.3 1.1 1.5 1.8 1.1 0.7 3.4 0.7z"/>
			<path id="Path 34" class="s33" d="m420.1 605.8v23.2q0 2.7 0.5 4.9 0.4 2.1 1.5 3.6 1.1 1.5 3 2.3 1.8 0.8 4.7 0.8h2v-6.2h-1.9q-2.2 0-3.1-0.9-1-1-1-2.8v-22.3q0-2.6-2.2-2.6z"/>
			<path id="Path 35" class="s34" d="m430.4 640.6h18.3v-6.2h-18.3z"/>
			<path id="Path 36" class="s35" d="m447.7 640.6h18.3v-6.2h-18.3z"/>
			<path id="Path 37" class="s36" d="m465 640.6h18.4v-6.2h-18.4z"/>
			<path id="Path 38" class="s37" d="m482.3 640.6h18.4v-6.2h-18.4z"/>
			<path id="Path 39" class="s38" d="m499.7 640.6h18.3v-6.2h-18.3z"/>
			<path id="Path 40" class="s39" d="m517 640.6h18.3v-6.2h-18.3z"/>
			<path id="Path 41" fill-rule="evenodd" class="s40" d="m551.6 607.4q1.4 0 2.4 1.1 0.9 1.1 0.9 2.6 0 1.6-0.9 2.7-1 1.1-2.4 1.1-1.3 0-2.3-1.1-1-1.1-1-2.7 0-1.5 1-2.6 1-1.1 2.3-1.1zm-7.6 0q1.4 0 2.3 1.1 1 1.1 1 2.6 0 1.6-1 2.7-0.9 1.1-2.3 1.1-1.4 0-2.4-1.1-0.9-1.1-0.9-2.7 0-1.5 0.9-2.6 1-1.1 2.4-1.1zm3.6 10.1q5 0 7.4 3 2.5 3 2.5 7.8 0 1.9-0.7 3.5-0.7 1.6-1.4 2.6h6.1v6.2h-27.7v-6.2h6.1q-0.7-1-1.4-2.6-0.7-1.6-0.7-3.5 0-2.4 0.6-4.4 0.5-2 1.7-3.4 1.2-1.4 3-2.2 1.9-0.8 4.5-0.8zm0.1 16.9q0.8-0.5 1.5-1.2 0.8-0.6 1.4-1.4 0.6-0.8 1-1.7 0.5-0.9 0.5-1.9 0-2.1-1.3-3.5-1.2-1.3-3.2-1.3-2.4 0-3.4 1.4-1 1.5-1 3.4 0 1.9 1.2 3.3 1.2 1.5 3.3 2.9z"/>
			<path id="Path 42" fill-rule="evenodd" class="s41" d="m574.7 618.1q1.2 0 2.7 0.3 1.4 0.2 2.8 0.6 1.3 0.4 2.8 0.8v13.6q0.4 0.3 1.3 0.7 0.9 0.3 2.5 0.3h1.9v6.2h-1.9q-1 0-2.3-0.4-1.3-0.3-2.6-1.2-0.9 1.5-2.3 2.3-1.4 0.7-3.6 0.7-0.9 0-2.3-0.2-1.5-0.3-2.6-0.5-1.1-0.3-2.6-0.7h-8.8v-6.2h4.3q-0.1-1-0.3-2.3-0.3-1.2-0.3-2.6 0-2.6 0.8-4.7 0.8-2.1 2.3-3.5 1.5-1.5 3.5-2.4 2.1-0.8 4.7-0.8zm1.2 17.9q0.7 0 1.2-0.5 0.4-0.5 0.4-1.6v-9.2q-0.5-0.2-1.2-0.3-0.7-0.1-1.5-0.1-1.5 0-2.6 0.5-1.1 0.5-1.8 1.2-0.8 0.8-1.1 1.8-0.4 1-0.4 2 0 0.9 0.1 1.8 0.1 0.8 0.2 1.5 0.2 0.8 0.3 1.5 0.8 0.2 2.3 0.6 1.6 0.4 2.5 0.6 1 0.2 1.6 0.2z"/>
			<path id="Path 43" class="s42" d="m594.9 605.8q-2.1 0-2.1 2.6v23.4q0 1.2-0.6 1.9-0.6 0.7-1.9 0.7h-3.4v6.2h4.6q1.7 0 3.2-0.7 1.5-0.6 2.3-1.7 1.3 1.1 2.7 1.7 1.5 0.7 2.6 0.7h1.9v-6.2h-1.9q-1.7 0-2.8-0.2-1-0.3-1-0.8v-27.6z"/>
			<path id="Path 44" class="s43" d="m611.5 605.8q-2.3 0-2.3 2.6v22.2q0 1.9-0.9 2.8-1 1-3.1 1h-2.8v6.2h2.8q2.9 0 4.8-0.8 1.8-0.8 2.9-2.3 1.2-1.5 1.6-3.7 0.4-2.1 0.4-4.8v-23.2z"/>
			<path id="Path 45" class="s44" d="m344.2 363.3h-22.5v19.7h22.5zm33.8 0h-22.4v19.6h22.4zm-22.4 50.1h22.4v-19.7h-22.4zm-33.9 0h22.5v-19.7h-22.5z"/>
			<path id="Path 46" class="s45" d="m375.2 143.5l40.6 32.9v-9l-40.6-32.8z"/>
			<path id="Path 47" class="s46" d="m375.2 161l40.6 32.9v-9l-40.6-32.8z"/>
			<path id="Path 48" class="s47" d="m375.2 180.2l40.6 32.8v-9l-40.6-32.8z"/>
			<path id="Path 49" class="s48" d="m375.2 125.6l40.6 32.8v-9l-40.6-32.8z"/>
			<path id="Path 50" class="s49" d="m244.6 62.3v86l0.7 113.5c3.5-1.4 7-11.6 10.4-13v-183.4l40.5-34.4v202.8c13.4-4.8 26.5-10.3 37.4-18.2v-172.5l-27.3-31.3z"/>
			<path id="Path 51" class="s50" d="m260.8 54.3v192.4q1.6-0.6 3.2-1.3 1.1-0.4 2.2-0.9v-190.2z"/>
			<path id="Path 52" class="s51" d="m271.9 41v201.4q2.6-1 5.3-1.9v-199.5z"/>
			<path id="Path 53" class="s52" d="m282.9 32.8v205.7q2.7-0.9 5.4-1.9v-203.8z"/>
			<path id="Path 54" class="s53" d="m245.2 256.2v88.7l106.6-83.4 76.6 62.9v16.5l-76.6-59.9-96 75.1h-60.7v26.9h71.1l85.6-67.6 84.6 67.6h19.8v-75l-104.4-77.9-79.2 60.5v-20.1l79.2-61.9 104.4 81.4v-33.1l-104.4-80.7z"/>
			<path id="Path 55" class="s54" d="m348.3 162.6l15.7 13.6v-82.8l63 51.1v111.1h15.7v-116.8l-94.4-82.5z"/>
			<g id="&lt;Group&gt;" style="opacity: .1">
				<path id="Path 57" class="s55" d="m349.9 469.7v31.9l-61.8-35.7 7.9-27.3z"/>
			</g>
			<g id="&lt;Group&gt;" style="opacity: .1">
				<path id="Path 60" class="s56" d="m490.8 388.3l27.7 16-63.9 36.9-24.6-17.7z"/>
			</g>
			<g id="&lt;Group&gt;" style="opacity: .1">
				<path id="Path 63" class="s57" d="m181.3 209.6l27.6 16v64.5l-27.6-9.8z"/>
			</g>
			<path id="Path 65" class="s58" d="m181.3 209.6v173.4h27.6v-157.4l39.5-22.8v-31.9z"/>
			<path id="Path 66" class="s59" d="m451.7 199.4l39.1 26.2v162.7l-140.9 81.4-112.1-64.7h-55.2l167.3 96.6 168.6-97.3v-194.7l-66.8-42.1z"/>
			<path id="Path 67" fill-rule="evenodd" class="s44" d="m92.8 687.7c-1.4 0-2.7-0.2-3.7-0.5l0.3-3.4c1 0.5 2.2 0.8 3.5 0.8 1.5 0 2.8-0.7 2.8-2.4 0-3.6-6.9-1.9-6.9-8 0-3.3 2.2-5.6 6.2-5.6 0.9 0 2 0.2 2.9 0.4l-0.3 3.1q-1.3-0.5-2.8-0.5c-1.8 0-2.7 0.9-2.7 2.2 0 3.3 7 2.1 7 7.9 0 3.4-2.5 6-6.3 6zm33.4-0.3l-1.1-3.8h-6.2l-1.2 3.8h-3.1l5.6-18.5h3.7l5.8 18.5zm-3.6-12.1c-0.3-0.9-0.5-1.7-0.7-2.5-0.2 0.8-0.4 1.6-0.6 2.5l-1.7 5.5h4.7zm27.8 12.2c-1.7 0-3.2-0.1-4.5-0.2v-18.3c1.2-0.1 3.2-0.2 5.2-0.2 5.1 0 8.3 2.6 8.3 9 0 6.3-3.7 9.7-9 9.7zm0.5-15.7c-0.7 0-1.4 0-1.9 0.1v12.4c0.4 0.1 1.1 0.1 1.7 0.1 3.1 0 5.3-1.9 5.3-6.3 0-3.9-1.4-6.3-5.1-6.3zm25.6 15.6v-18.5h8.9v3h-5.7v4.5h5.4v2.9h-5.4v5h5.7v3.1zm26.5 0v-18.5h8.8v3h-5.7v4.5h5.5v2.9h-5.5v5h5.7v3.1zm42.1 0l-1.2-8.9c-0.2-1.7-0.4-3.4-0.5-4.6-0.2 1.1-0.5 2.7-0.9 4.2l-2.7 9.3h-3l-2.6-8.7c-0.4-1.6-0.8-3.3-1-4.8h-0.1c-0.1 1.6-0.2 3.3-0.4 4.9l-0.9 8.6h-3.2l2.5-18.5h3.7l2.7 9.6c0.3 1 0.7 2.6 0.9 3.8h0.1c0.3-1.3 0.6-2.7 0.9-3.8l2.8-9.6h3.6l2.6 18.5zm47.4 0.2c-5.7 0-7.5-4.3-7.5-8.9 0-5.8 2.7-9.9 8.1-9.9 1.2 0 2.5 0.2 3.5 0.5l-0.4 3.3c-1-0.4-2.1-0.7-3.2-0.7-3.1 0-4.6 2.6-4.6 6.2 0 4 1.5 6.3 4.8 6.3 1 0 2.2-0.3 3.1-0.8l0.5 3.1c-1.2 0.6-2.8 0.9-4.3 0.9zm28 0.1c-5 0-7.4-3.6-7.4-9.3 0-6.1 3.6-9.8 8-9.8 4.9 0 7.4 3.6 7.4 9.3 0 6.1-3.6 9.8-8 9.8zm0.3-15.9c-2.5 0-4.4 2.2-4.4 6.2 0 3.9 1.4 6.4 4.4 6.4 2.4 0 4.3-2.1 4.3-6.1 0-3.9-1.4-6.5-4.3-6.5zm34.1 15.6l-5.1-10.2c-0.6-1.3-1.1-2.4-1.4-3.6 0.1 1.6 0.1 6.1 0.1 8.8v5h-3v-18.5h4.2l4.9 10c0.6 1.1 1.1 2.4 1.6 3.6-0.1-1.8-0.2-6.4-0.2-8.9v-4.7h3v18.5zm25.4 0.3c-1.5 0-2.7-0.2-3.8-0.5l0.4-3.4c1 0.5 2.2 0.8 3.5 0.8 1.5 0 2.8-0.7 2.8-2.4 0-3.6-6.9-2-6.9-8 0-3.3 2.2-5.6 6.2-5.6 0.8 0 2 0.2 2.9 0.4l-0.3 3.1q-1.3-0.5-2.8-0.5c-1.8 0-2.7 0.9-2.7 2.2 0 3.3 7 2.1 7 7.9 0 3.4-2.5 6-6.3 6zm29.5-15.7v15.4h-3.2v-15.4h-4.2v-3.1h11.6v3.1zm28.6 15.4l-4.4-7.6h-0.3v7.6h-3.1v-18.5c1.3 0 2.8-0.1 4.7-0.1 3.6 0 5.9 1.4 5.9 5.2 0 2.7-1.7 4.7-4 5.2 0.5 0.6 0.9 1.3 1.3 2l3.8 6.2zm-3.4-15.7c-0.5 0-0.9 0.1-1.3 0.1v5.3c0.3 0.1 0.7 0.1 1.2 0.1 1.9 0 3-1.1 3-2.8q0-2.7-2.9-2.7zm30.2 16c-5.2 0-6.4-3.2-6.4-6.7v-12.1h3.2v11.9c0 2.3 0.7 3.9 3.4 3.9 2.4 0 3.4-1.1 3.4-4.3v-11.5h3.1v11.3c0 5.1-2.4 7.5-6.7 7.5zm31.4-0.1c-5.7 0-7.5-4.3-7.5-8.9 0-5.8 2.7-9.9 8.2-9.9 1.1 0 2.4 0.2 3.4 0.5l-0.4 3.3c-1-0.4-2.1-0.7-3.2-0.7-3.1 0-4.6 2.6-4.6 6.2 0 4 1.5 6.3 4.8 6.3 1 0 2.3-0.3 3.1-0.8l0.5 3.1c-1.2 0.6-2.7 0.9-4.3 0.9zm27.5-15.6v15.4h-3.1v-15.4h-4.3v-3.1h11.7v3.1zm20.8-3.1h3.1v18.5h-3.1zm27.6 18.7c-5 0-7.5-3.6-7.5-9.2 0-6.1 3.6-9.8 8-9.8 5 0 7.5 3.5 7.5 9.2 0 6.1-3.7 9.8-8 9.8zm0.3-15.8c-2.5 0-4.4 2.2-4.4 6.1 0 4 1.4 6.5 4.3 6.5 2.5 0 4.4-2.2 4.4-6.2 0-3.9-1.4-6.4-4.3-6.4zm34 15.5l-5-10.2c-0.6-1.3-1.1-2.4-1.5-3.6 0.1 1.7 0.2 6.1 0.2 8.8v5h-3v-18.4h4.1l5 9.9c0.5 1.1 1.1 2.5 1.5 3.7-0.1-1.9-0.1-6.4-0.1-9v-4.6h3v18.4z"/>
		</g>
	</g>
</svg>