<?xml version="1.0" encoding="UTF-8"?>
<svg xmlns="http://www.w3.org/2000/svg" xmlns:xlink="http://www.w3.org/1999/xlink" width="1000px" height="1000px" viewBox="0 0 1000 1000" version="1.1">
<defs>
<linearGradient id="linear0" gradientUnits="userSpaceOnUse" x1="0" y1="0" x2="1" y2="0" gradientTransform="matrix(-27.303444,-154.265439,155.127078,-27.456057,383.101544,753.390736)">
<stop offset="0" style="stop-color:rgb(58.431373%,38.039216%,19.607843%);stop-opacity:1;"/>
<stop offset="1" style="stop-color:rgb(90.980392%,69.803922%,49.803922%);stop-opacity:1;"/>
</linearGradient>
<linearGradient id="linear1" gradientUnits="userSpaceOnUse" x1="0" y1="0" x2="1" y2="0" gradientTransform="matrix(-27.303444,-154.265439,155.82304,-27.579572,395.715558,751.157957)">
<stop offset="0" style="stop-color:rgb(58.431373%,38.039216%,19.607843%);stop-opacity:1;"/>
<stop offset="1" style="stop-color:rgb(90.980392%,69.803922%,49.803922%);stop-opacity:1;"/>
</linearGradient>
<linearGradient id="linear2" gradientUnits="userSpaceOnUse" x1="0" y1="0" x2="1" y2="0" gradientTransform="matrix(-27.303444,-154.265439,155.82304,-27.579572,398.86639,750.600356)">
<stop offset="0" style="stop-color:rgb(58.431373%,38.039216%,19.607843%);stop-opacity:1;"/>
<stop offset="1" style="stop-color:rgb(90.980392%,69.803922%,49.803922%);stop-opacity:1;"/>
</linearGradient>
<linearGradient id="linear3" gradientUnits="userSpaceOnUse" x1="0" y1="0" x2="1" y2="0" gradientTransform="matrix(-27.303444,-154.265439,83.431116,-14.766627,405.833135,749.366983)">
<stop offset="0" style="stop-color:rgb(58.431373%,38.039216%,19.607843%);stop-opacity:1;"/>
<stop offset="1" style="stop-color:rgb(90.980392%,69.803922%,49.803922%);stop-opacity:1;"/>
</linearGradient>
<linearGradient id="linear4" gradientUnits="userSpaceOnUse" x1="0" y1="0" x2="1" y2="0" gradientTransform="matrix(-27.303444,-154.265439,125.58848,-22.228029,420.26247,746.813539)">
<stop offset="0" style="stop-color:rgb(58.431373%,38.039216%,19.607843%);stop-opacity:1;"/>
<stop offset="1" style="stop-color:rgb(90.980392%,69.803922%,49.803922%);stop-opacity:1;"/>
</linearGradient>
<linearGradient id="linear5" gradientUnits="userSpaceOnUse" x1="0" y1="0" x2="1" y2="0" gradientTransform="matrix(-27.303444,-154.265439,234.355701,-41.478622,439.568884,743.396081)">
<stop offset="0" style="stop-color:rgb(58.431373%,38.039216%,19.607843%);stop-opacity:1;"/>
<stop offset="1" style="stop-color:rgb(90.980392%,69.803922%,49.803922%);stop-opacity:1;"/>
</linearGradient>
<linearGradient id="linear6" gradientUnits="userSpaceOnUse" x1="0" y1="0" x2="1" y2="0" gradientTransform="matrix(-27.303444,-154.265439,127.581354,-22.58076,472.568884,737.555819)">
<stop offset="0" style="stop-color:rgb(58.431373%,38.039216%,19.607843%);stop-opacity:1;"/>
<stop offset="1" style="stop-color:rgb(90.980392%,69.803922%,49.803922%);stop-opacity:1;"/>
</linearGradient>
<linearGradient id="linear7" gradientUnits="userSpaceOnUse" x1="0" y1="0" x2="1" y2="0" gradientTransform="matrix(-27.303444,-154.265439,51.405582,-9.098575,488.548694,734.727435)">
<stop offset="0" style="stop-color:rgb(58.431373%,38.039216%,19.607843%);stop-opacity:1;"/>
<stop offset="1" style="stop-color:rgb(90.980392%,69.803922%,49.803922%);stop-opacity:1;"/>
</linearGradient>
<linearGradient id="linear8" gradientUnits="userSpaceOnUse" x1="0" y1="0" x2="1" y2="0" gradientTransform="matrix(-27.303444,-154.265439,165.09323,-29.220309,498.380641,732.986936)">
<stop offset="0" style="stop-color:rgb(58.431373%,38.039216%,19.607843%);stop-opacity:1;"/>
<stop offset="1" style="stop-color:rgb(90.980392%,69.803922%,49.803922%);stop-opacity:1;"/>
</linearGradient>
<linearGradient id="linear9" gradientUnits="userSpaceOnUse" x1="0" y1="0" x2="1" y2="0" gradientTransform="matrix(-27.303444,-154.265439,50.31057,-8.904394,511.70962,730.627672)">
<stop offset="0" style="stop-color:rgb(58.431373%,38.039216%,19.607843%);stop-opacity:1;"/>
<stop offset="1" style="stop-color:rgb(90.980392%,69.803922%,49.803922%);stop-opacity:1;"/>
</linearGradient>
<linearGradient id="linear10" gradientUnits="userSpaceOnUse" x1="0" y1="0" x2="1" y2="0" gradientTransform="matrix(-27.303444,-154.265439,143.425772,-25.385392,527.592637,727.817102)">
<stop offset="0" style="stop-color:rgb(58.431373%,38.039216%,19.607843%);stop-opacity:1;"/>
<stop offset="1" style="stop-color:rgb(90.980392%,69.803922%,49.803922%);stop-opacity:1;"/>
</linearGradient>
<linearGradient id="linear11" gradientUnits="userSpaceOnUse" x1="0" y1="0" x2="1" y2="0" gradientTransform="matrix(-27.303444,-154.265439,77.947743,-13.796318,545.925772,724.571853)">
<stop offset="0" style="stop-color:rgb(58.431373%,38.039216%,19.607843%);stop-opacity:1;"/>
<stop offset="1" style="stop-color:rgb(90.980392%,69.803922%,49.803922%);stop-opacity:1;"/>
</linearGradient>
<linearGradient id="linear12" gradientUnits="userSpaceOnUse" x1="0" y1="0" x2="1" y2="0" gradientTransform="matrix(-27.303444,-154.265439,55.561758,-9.833729,554.684086,723.021971)">
<stop offset="0" style="stop-color:rgb(58.431373%,38.039216%,19.607843%);stop-opacity:1;"/>
<stop offset="1" style="stop-color:rgb(90.980392%,69.803922%,49.803922%);stop-opacity:1;"/>
</linearGradient>
<linearGradient id="linear13" gradientUnits="userSpaceOnUse" x1="0" y1="0" x2="1" y2="0" gradientTransform="matrix(-27.303444,-154.265439,101.460214,-17.957838,576.428147,719.173397)">
<stop offset="0" style="stop-color:rgb(58.431373%,38.039216%,19.607843%);stop-opacity:1;"/>
<stop offset="1" style="stop-color:rgb(90.980392%,69.803922%,49.803922%);stop-opacity:1;"/>
</linearGradient>
<linearGradient id="linear14" gradientUnits="userSpaceOnUse" x1="0" y1="0" x2="1" y2="0" gradientTransform="matrix(-27.303444,-154.265439,237.995843,-42.122922,596.98753,715.534442)">
<stop offset="0" style="stop-color:rgb(58.431373%,38.039216%,19.607843%);stop-opacity:1;"/>
<stop offset="1" style="stop-color:rgb(90.980392%,69.803922%,49.803922%);stop-opacity:1;"/>
</linearGradient>
<linearGradient id="linear15" gradientUnits="userSpaceOnUse" x1="0" y1="0" x2="1" y2="0" gradientTransform="matrix(-27.303444,-154.265439,234.351544,-41.478029,622.376485,711.040974)">
<stop offset="0" style="stop-color:rgb(58.431373%,38.039216%,19.607843%);stop-opacity:1;"/>
<stop offset="1" style="stop-color:rgb(90.980392%,69.803922%,49.803922%);stop-opacity:1;"/>
</linearGradient>
<linearGradient id="linear16" gradientUnits="userSpaceOnUse" x1="0" y1="0" x2="1" y2="0" gradientTransform="matrix(-27.303444,-154.265439,85.135392,-15.06829,644.436461,707.13658)">
<stop offset="0" style="stop-color:rgb(58.431373%,38.039216%,19.607843%);stop-opacity:1;"/>
<stop offset="1" style="stop-color:rgb(90.980392%,69.803922%,49.803922%);stop-opacity:1;"/>
</linearGradient>
<linearGradient id="linear17" gradientUnits="userSpaceOnUse" x1="0" y1="0" x2="1" y2="0" gradientTransform="matrix(-27.303444,-154.265439,166.627672,-29.491686,661.888955,704.047506)">
<stop offset="0" style="stop-color:rgb(58.431373%,38.039216%,19.607843%);stop-opacity:1;"/>
<stop offset="1" style="stop-color:rgb(90.980392%,69.803922%,49.803922%);stop-opacity:1;"/>
</linearGradient>
<linearGradient id="linear18" gradientUnits="userSpaceOnUse" x1="0" y1="0" x2="1" y2="0" gradientTransform="matrix(-27.303444,-154.265439,98.379454,-17.412114,365.196556,756.559382)">
<stop offset="0" style="stop-color:rgb(58.431373%,38.039216%,19.607843%);stop-opacity:1;"/>
<stop offset="1" style="stop-color:rgb(90.980392%,69.803922%,49.803922%);stop-opacity:1;"/>
</linearGradient>
<linearGradient id="linear19" gradientUnits="userSpaceOnUse" x1="0" y1="0" x2="1" y2="0" gradientTransform="matrix(-27.303444,-154.265439,169.410926,-29.984561,377.959026,754.300475)">
<stop offset="0" style="stop-color:rgb(58.431373%,38.039216%,19.607843%);stop-opacity:1;"/>
<stop offset="1" style="stop-color:rgb(90.980392%,69.803922%,49.803922%);stop-opacity:1;"/>
</linearGradient>
<linearGradient id="linear20" gradientUnits="userSpaceOnUse" x1="0" y1="0" x2="1" y2="0" gradientTransform="matrix(-27.303444,-154.265439,46.6538,-8.257126,391.201306,751.956651)">
<stop offset="0" style="stop-color:rgb(58.431373%,38.039216%,19.607843%);stop-opacity:1;"/>
<stop offset="1" style="stop-color:rgb(90.980392%,69.803922%,49.803922%);stop-opacity:1;"/>
</linearGradient>
<linearGradient id="linear21" gradientUnits="userSpaceOnUse" x1="0" y1="0" x2="1" y2="0" gradientTransform="matrix(-27.303444,-154.265439,318.339667,-56.34323,398.554632,750.655582)">
<stop offset="0" style="stop-color:rgb(58.431373%,38.039216%,19.607843%);stop-opacity:1;"/>
<stop offset="1" style="stop-color:rgb(90.980392%,69.803922%,49.803922%);stop-opacity:1;"/>
</linearGradient>
<linearGradient id="linear22" gradientUnits="userSpaceOnUse" x1="0" y1="0" x2="1" y2="0" gradientTransform="matrix(-27.303444,-154.265439,318.360451,-56.346793,408.530879,748.889549)">
<stop offset="0" style="stop-color:rgb(58.431373%,38.039216%,19.607843%);stop-opacity:1;"/>
<stop offset="1" style="stop-color:rgb(90.980392%,69.803922%,49.803922%);stop-opacity:1;"/>
</linearGradient>
<linearGradient id="linear23" gradientUnits="userSpaceOnUse" x1="0" y1="0" x2="1" y2="0" gradientTransform="matrix(-27.303444,-154.265439,318.339667,-56.34323,418.507126,747.124109)">
<stop offset="0" style="stop-color:rgb(58.431373%,38.039216%,19.607843%);stop-opacity:1;"/>
<stop offset="1" style="stop-color:rgb(90.980392%,69.803922%,49.803922%);stop-opacity:1;"/>
</linearGradient>
<linearGradient id="linear24" gradientUnits="userSpaceOnUse" x1="0" y1="0" x2="1" y2="0" gradientTransform="matrix(-27.303444,-154.265439,318.339667,-56.34323,428.483373,745.358076)">
<stop offset="0" style="stop-color:rgb(58.431373%,38.039216%,19.607843%);stop-opacity:1;"/>
<stop offset="1" style="stop-color:rgb(90.980392%,69.803922%,49.803922%);stop-opacity:1;"/>
</linearGradient>
<linearGradient id="linear25" gradientUnits="userSpaceOnUse" x1="0" y1="0" x2="1" y2="0" gradientTransform="matrix(-27.303444,-154.265439,318.339667,-56.34323,438.458432,743.592637)">
<stop offset="0" style="stop-color:rgb(58.431373%,38.039216%,19.607843%);stop-opacity:1;"/>
<stop offset="1" style="stop-color:rgb(90.980392%,69.803922%,49.803922%);stop-opacity:1;"/>
</linearGradient>
<linearGradient id="linear26" gradientUnits="userSpaceOnUse" x1="0" y1="0" x2="1" y2="0" gradientTransform="matrix(-27.303444,-154.265439,318.360451,-56.346793,448.434679,741.827197)">
<stop offset="0" style="stop-color:rgb(58.431373%,38.039216%,19.607843%);stop-opacity:1;"/>
<stop offset="1" style="stop-color:rgb(90.980392%,69.803922%,49.803922%);stop-opacity:1;"/>
</linearGradient>
<linearGradient id="linear27" gradientUnits="userSpaceOnUse" x1="0" y1="0" x2="1" y2="0" gradientTransform="matrix(-27.303444,-154.265439,197.130641,-34.890143,462.130048,739.403207)">
<stop offset="0" style="stop-color:rgb(58.431373%,38.039216%,19.607843%);stop-opacity:1;"/>
<stop offset="1" style="stop-color:rgb(90.980392%,69.803922%,49.803922%);stop-opacity:1;"/>
</linearGradient>
<linearGradient id="linear28" gradientUnits="userSpaceOnUse" x1="0" y1="0" x2="1" y2="0" gradientTransform="matrix(-27.303444,-154.265439,85.027316,-15.049287,475.443587,737.046912)">
<stop offset="0" style="stop-color:rgb(58.431373%,38.039216%,19.607843%);stop-opacity:1;"/>
<stop offset="1" style="stop-color:rgb(90.980392%,69.803922%,49.803922%);stop-opacity:1;"/>
</linearGradient>
<linearGradient id="linear29" gradientUnits="userSpaceOnUse" x1="0" y1="0" x2="1" y2="0" gradientTransform="matrix(-27.303444,-154.265439,52.027316,-9.208432,484.077791,735.518409)">
<stop offset="0" style="stop-color:rgb(58.431373%,38.039216%,19.607843%);stop-opacity:1;"/>
<stop offset="1" style="stop-color:rgb(90.980392%,69.803922%,49.803922%);stop-opacity:1;"/>
</linearGradient>
<linearGradient id="linear30" gradientUnits="userSpaceOnUse" x1="0" y1="0" x2="1" y2="0" gradientTransform="matrix(-27.303444,-154.265439,188.852732,-33.425178,505.826603,731.66924)">
<stop offset="0" style="stop-color:rgb(58.431373%,38.039216%,19.607843%);stop-opacity:1;"/>
<stop offset="1" style="stop-color:rgb(90.980392%,69.803922%,49.803922%);stop-opacity:1;"/>
</linearGradient>
<linearGradient id="linear31" gradientUnits="userSpaceOnUse" x1="0" y1="0" x2="1" y2="0" gradientTransform="matrix(-27.303444,-154.265439,151.248812,-26.769596,526.957245,727.929335)">
<stop offset="0" style="stop-color:rgb(58.431373%,38.039216%,19.607843%);stop-opacity:1;"/>
<stop offset="1" style="stop-color:rgb(90.980392%,69.803922%,49.803922%);stop-opacity:1;"/>
</linearGradient>
<linearGradient id="linear32" gradientUnits="userSpaceOnUse" x1="0" y1="0" x2="1" y2="0" gradientTransform="matrix(-27.303444,-154.265439,93.013658,-16.462589,543.469121,725.006532)">
<stop offset="0" style="stop-color:rgb(58.431373%,38.039216%,19.607843%);stop-opacity:1;"/>
<stop offset="1" style="stop-color:rgb(90.980392%,69.803922%,49.803922%);stop-opacity:1;"/>
</linearGradient>
<linearGradient id="linear33" gradientUnits="userSpaceOnUse" x1="0" y1="0" x2="1" y2="0" gradientTransform="matrix(-27.303444,-154.265439,46.653207,-8.257126,554.786223,723.003563)">
<stop offset="0" style="stop-color:rgb(58.431373%,38.039216%,19.607843%);stop-opacity:1;"/>
<stop offset="1" style="stop-color:rgb(90.980392%,69.803922%,49.803922%);stop-opacity:1;"/>
</linearGradient>
<linearGradient id="linear34" gradientUnits="userSpaceOnUse" x1="0" y1="0" x2="1" y2="0" gradientTransform="matrix(-27.303444,-154.265439,318.360451,-56.346793,562.138955,721.702494)">
<stop offset="0" style="stop-color:rgb(58.431373%,38.039216%,19.607843%);stop-opacity:1;"/>
<stop offset="1" style="stop-color:rgb(90.980392%,69.803922%,49.803922%);stop-opacity:1;"/>
</linearGradient>
<linearGradient id="linear35" gradientUnits="userSpaceOnUse" x1="0" y1="0" x2="1" y2="0" gradientTransform="matrix(-27.303444,-154.265439,318.339667,-56.34323,572.115202,719.936461)">
<stop offset="0" style="stop-color:rgb(58.431373%,38.039216%,19.607843%);stop-opacity:1;"/>
<stop offset="1" style="stop-color:rgb(90.980392%,69.803922%,49.803922%);stop-opacity:1;"/>
</linearGradient>
<linearGradient id="linear36" gradientUnits="userSpaceOnUse" x1="0" y1="0" x2="1" y2="0" gradientTransform="matrix(-27.303444,-154.265439,318.360451,-56.346793,582.091449,718.171021)">
<stop offset="0" style="stop-color:rgb(58.431373%,38.039216%,19.607843%);stop-opacity:1;"/>
<stop offset="1" style="stop-color:rgb(90.980392%,69.803922%,49.803922%);stop-opacity:1;"/>
</linearGradient>
<linearGradient id="linear37" gradientUnits="userSpaceOnUse" x1="0" y1="0" x2="1" y2="0" gradientTransform="matrix(-27.303444,-154.265439,318.360451,-56.346793,592.067696,716.405582)">
<stop offset="0" style="stop-color:rgb(58.431373%,38.039216%,19.607843%);stop-opacity:1;"/>
<stop offset="1" style="stop-color:rgb(90.980392%,69.803922%,49.803922%);stop-opacity:1;"/>
</linearGradient>
<linearGradient id="linear38" gradientUnits="userSpaceOnUse" x1="0" y1="0" x2="1" y2="0" gradientTransform="matrix(-27.303444,-154.265439,318.339667,-56.34323,602.043943,714.639549)">
<stop offset="0" style="stop-color:rgb(58.431373%,38.039216%,19.607843%);stop-opacity:1;"/>
<stop offset="1" style="stop-color:rgb(90.980392%,69.803922%,49.803922%);stop-opacity:1;"/>
</linearGradient>
<linearGradient id="linear39" gradientUnits="userSpaceOnUse" x1="0" y1="0" x2="1" y2="0" gradientTransform="matrix(-27.303444,-154.265439,318.360451,-56.346793,612.02019,712.874109)">
<stop offset="0" style="stop-color:rgb(58.431373%,38.039216%,19.607843%);stop-opacity:1;"/>
<stop offset="1" style="stop-color:rgb(90.980392%,69.803922%,49.803922%);stop-opacity:1;"/>
</linearGradient>
<linearGradient id="linear40" gradientUnits="userSpaceOnUse" x1="0" y1="0" x2="1" y2="0" gradientTransform="matrix(-27.303444,-154.265439,122.232185,-21.634204,624.387173,710.685273)">
<stop offset="0" style="stop-color:rgb(58.431373%,38.039216%,19.607843%);stop-opacity:1;"/>
<stop offset="1" style="stop-color:rgb(90.980392%,69.803922%,49.803922%);stop-opacity:1;"/>
</linearGradient>
<linearGradient id="linear41" gradientUnits="userSpaceOnUse" x1="0" y1="0" x2="1" y2="0" gradientTransform="matrix(-27.303444,-154.265439,184.100356,-32.584323,639.687648,707.976841)">
<stop offset="0" style="stop-color:rgb(58.431373%,38.039216%,19.607843%);stop-opacity:1;"/>
<stop offset="1" style="stop-color:rgb(90.980392%,69.803922%,49.803922%);stop-opacity:1;"/>
</linearGradient>
<linearGradient id="linear42" gradientUnits="userSpaceOnUse" x1="0" y1="0" x2="1" y2="0" gradientTransform="matrix(-27.303444,-154.265439,77.769596,-13.764846,651.96734,705.803444)">
<stop offset="0" style="stop-color:rgb(58.431373%,38.039216%,19.607843%);stop-opacity:1;"/>
<stop offset="1" style="stop-color:rgb(90.980392%,69.803922%,49.803922%);stop-opacity:1;"/>
</linearGradient>
<linearGradient id="linear43" gradientUnits="userSpaceOnUse" x1="0" y1="0" x2="1" y2="0" gradientTransform="matrix(-27.303444,-154.265439,85.027316,-15.049287,660.964371,704.211401)">
<stop offset="0" style="stop-color:rgb(58.431373%,38.039216%,19.607843%);stop-opacity:1;"/>
<stop offset="1" style="stop-color:rgb(90.980392%,69.803922%,49.803922%);stop-opacity:1;"/>
</linearGradient>
<linearGradient id="linear44" gradientUnits="userSpaceOnUse" x1="0" y1="0" x2="1" y2="0" gradientTransform="matrix(-1.023753,-420.815914,407.109857,-0.990499,527.89905,742.178147)">
<stop offset="0" style="stop-color:rgb(58.431373%,38.039216%,19.607843%);stop-opacity:1;"/>
<stop offset="1" style="stop-color:rgb(90.980392%,69.803922%,49.803922%);stop-opacity:1;"/>
</linearGradient>
<linearGradient id="linear45" gradientUnits="userSpaceOnUse" x1="0" y1="0" x2="1" y2="0" gradientTransform="matrix(-1.023753,-420.815914,407.090855,-0.990499,527.873515,742.178147)">
<stop offset="0" style="stop-color:rgb(58.431373%,38.039216%,19.607843%);stop-opacity:1;"/>
<stop offset="1" style="stop-color:rgb(90.980392%,69.803922%,49.803922%);stop-opacity:1;"/>
</linearGradient>
<linearGradient id="linear46" gradientUnits="userSpaceOnUse" x1="0" y1="0" x2="1" y2="0" gradientTransform="matrix(-1.023753,-420.815914,407.129454,-0.990499,527.8462,742.178147)">
<stop offset="0" style="stop-color:rgb(58.431373%,38.039216%,19.607843%);stop-opacity:1;"/>
<stop offset="1" style="stop-color:rgb(90.980392%,69.803922%,49.803922%);stop-opacity:1;"/>
</linearGradient>
<linearGradient id="linear47" gradientUnits="userSpaceOnUse" x1="0" y1="0" x2="1" y2="0" gradientTransform="matrix(-1.023753,-420.815914,407.110451,-0.990499,527.925178,742.178147)">
<stop offset="0" style="stop-color:rgb(58.431373%,38.039216%,19.607843%);stop-opacity:1;"/>
<stop offset="1" style="stop-color:rgb(90.980392%,69.803922%,49.803922%);stop-opacity:1;"/>
</linearGradient>
<linearGradient id="linear48" gradientUnits="userSpaceOnUse" x1="0" y1="0" x2="1" y2="0" gradientTransform="matrix(-1.023753,-420.815914,150.335511,-0.365796,464.811164,742.331354)">
<stop offset="0" style="stop-color:rgb(58.431373%,38.039216%,19.607843%);stop-opacity:1;"/>
<stop offset="1" style="stop-color:rgb(90.980392%,69.803922%,49.803922%);stop-opacity:1;"/>
</linearGradient>
<linearGradient id="linear49" gradientUnits="userSpaceOnUse" x1="0" y1="0" x2="1" y2="0" gradientTransform="matrix(-1.023753,-420.815914,12.696556,-0.0308789,449.513064,742.368765)">
<stop offset="0" style="stop-color:rgb(58.431373%,38.039216%,19.607843%);stop-opacity:1;"/>
<stop offset="1" style="stop-color:rgb(90.980392%,69.803922%,49.803922%);stop-opacity:1;"/>
</linearGradient>
<linearGradient id="linear50" gradientUnits="userSpaceOnUse" x1="0" y1="0" x2="1" y2="0" gradientTransform="matrix(-1.023753,-420.815914,12.181116,-0.0296912,456.083729,742.352732)">
<stop offset="0" style="stop-color:rgb(58.431373%,38.039216%,19.607843%);stop-opacity:1;"/>
<stop offset="1" style="stop-color:rgb(90.980392%,69.803922%,49.803922%);stop-opacity:1;"/>
</linearGradient>
<linearGradient id="linear51" gradientUnits="userSpaceOnUse" x1="0" y1="0" x2="1" y2="0" gradientTransform="matrix(-1.023753,-420.815914,11.947743,-0.0290974,462.650238,742.336698)">
<stop offset="0" style="stop-color:rgb(58.431373%,38.039216%,19.607843%);stop-opacity:1;"/>
<stop offset="1" style="stop-color:rgb(90.980392%,69.803922%,49.803922%);stop-opacity:1;"/>
</linearGradient>
<linearGradient id="linear52" gradientUnits="userSpaceOnUse" x1="0" y1="0" x2="1" y2="0" gradientTransform="matrix(-1.023753,-420.815914,531.292162,-1.292755,486.18171,742.279691)">
<stop offset="0" style="stop-color:rgb(58.431373%,38.039216%,19.607843%);stop-opacity:1;"/>
<stop offset="1" style="stop-color:rgb(90.980392%,69.803922%,49.803922%);stop-opacity:1;"/>
</linearGradient>
<linearGradient id="linear53" gradientUnits="userSpaceOnUse" x1="0" y1="0" x2="1" y2="0" gradientTransform="matrix(-1.023753,-420.815914,199.267221,-0.484561,527.906176,742.178147)">
<stop offset="0" style="stop-color:rgb(58.431373%,38.039216%,19.607843%);stop-opacity:1;"/>
<stop offset="1" style="stop-color:rgb(90.980392%,69.803922%,49.803922%);stop-opacity:1;"/>
</linearGradient>
<clipPath id="clip1">
  <path d="M 0 146.378906 L 1000 146.378906 L 1000 853.621094 L 0 853.621094 Z M 0 146.378906 "/>
</clipPath>
<filter id="alpha" filterUnits="objectBoundingBox" x="0%" y="0%" width="100%" height="100%">
  <feColorMatrix type="matrix" in="SourceGraphic" values="0 0 0 0 1 0 0 0 0 1 0 0 0 0 1 0 0 0 1 0"/>
</filter>
<mask id="mask0">
  <g filter="url(#alpha)">
<rect x="0" y="0" width="1000" height="1000" style="fill:rgb(0%,0%,0%);fill-opacity:0.101961;stroke:none;"/>
  </g>
</mask>
<linearGradient id="linear54" gradientUnits="userSpaceOnUse" x1="0" y1="0" x2="1" y2="0" gradientTransform="matrix(-1.023753,-420.815914,411.763064,-1.001781,482.009501,742.289786)">
<stop offset="0" style="stop-color:rgb(58.431373%,38.039216%,19.607843%);stop-opacity:1;"/>
<stop offset="1" style="stop-color:rgb(90.980392%,69.803922%,49.803922%);stop-opacity:1;"/>
</linearGradient>
<clipPath id="clip2">
  <rect x="0" y="0" width="1000" height="1000"/>
</clipPath>
<g id="surface5" clip-path="url(#clip2)">
<path style=" stroke:none;fill-rule:nonzero;fill:url(#linear54);" d="M 499.941406 571.378906 L 499.941406 590.320312 L 463.242188 569.121094 L 467.933594 552.910156 Z M 499.941406 571.378906 "/>
</g>
<mask id="mask1">
  <g filter="url(#alpha)">
<rect x="0" y="0" width="1000" height="1000" style="fill:rgb(0%,0%,0%);fill-opacity:0.101961;stroke:none;"/>
  </g>
</mask>
<linearGradient id="linear55" gradientUnits="userSpaceOnUse" x1="0" y1="0" x2="1" y2="0" gradientTransform="matrix(-1.023753,-420.815914,706.431116,-1.718527,574.257126,742.065321)">
<stop offset="0" style="stop-color:rgb(58.431373%,38.039216%,19.607843%);stop-opacity:1;"/>
<stop offset="1" style="stop-color:rgb(90.980392%,69.803922%,49.803922%);stop-opacity:1;"/>
</linearGradient>
<clipPath id="clip3">
  <rect x="0" y="0" width="1000" height="1000"/>
</clipPath>
<g id="surface8" clip-path="url(#clip3)">
<path style=" stroke:none;fill-rule:nonzero;fill:url(#linear55);" d="M 583.609375 523.039062 L 600.058594 532.542969 L 562.113281 554.453125 L 547.507812 543.941406 Z M 583.609375 523.039062 "/>
</g>
<mask id="mask2">
  <g filter="url(#alpha)">
<rect x="0" y="0" width="1000" height="1000" style="fill:rgb(0%,0%,0%);fill-opacity:0.101961;stroke:none;"/>
  </g>
</mask>
<linearGradient id="linear56" gradientUnits="userSpaceOnUse" x1="0" y1="0" x2="1" y2="0" gradientTransform="matrix(-1.023753,-420.815914,144.982779,-0.352732,408.760689,742.467933)">
<stop offset="0" style="stop-color:rgb(58.431373%,38.039216%,19.607843%);stop-opacity:1;"/>
<stop offset="1" style="stop-color:rgb(90.980392%,69.803922%,49.803922%);stop-opacity:1;"/>
</linearGradient>
<clipPath id="clip4">
  <rect x="0" y="0" width="1000" height="1000"/>
</clipPath>
<g id="surface11" clip-path="url(#clip4)">
<path style=" stroke:none;fill-rule:nonzero;fill:url(#linear56);" d="M 399.820312 416.925781 L 416.210938 426.425781 L 416.210938 464.726562 L 399.820312 458.90625 Z M 399.820312 416.925781 "/>
</g>
<linearGradient id="linear57" gradientUnits="userSpaceOnUse" x1="0" y1="0" x2="1" y2="0" gradientTransform="matrix(-1.023753,-420.815914,134.143112,-0.326603,420.43171,742.43943)">
<stop offset="0" style="stop-color:rgb(58.431373%,38.039216%,19.607843%);stop-opacity:1;"/>
<stop offset="1" style="stop-color:rgb(90.980392%,69.803922%,49.803922%);stop-opacity:1;"/>
</linearGradient>
<linearGradient id="linear58" gradientUnits="userSpaceOnUse" x1="0" y1="0" x2="1" y2="0" gradientTransform="matrix(-1.023753,-420.815914,423.983967,-1.031473,500.954276,742.243468)">
<stop offset="0" style="stop-color:rgb(58.431373%,38.039216%,19.607843%);stop-opacity:1;"/>
<stop offset="1" style="stop-color:rgb(90.980392%,69.803922%,49.803922%);stop-opacity:1;"/>
</linearGradient>
</defs>
<g id="surface1">
<path style=" stroke:none;fill-rule:evenodd;fill:url(#linear0);" d="M 363.65625 615.738281 C 368.347656 615.738281 370.488281 618.765625 370.488281 623.515625 L 370.488281 628.621094 L 372.980469 628.621094 L 372.980469 632.125 L 363.894531 632.125 C 358.550781 632.125 356.234375 629.632812 355.878906 625.535156 L 355.226562 625.535156 C 353.503906 625.535156 353.027344 626.664062 353.503906 629.871094 L 355.046875 640.972656 L 351.1875 640.972656 L 349.703125 630.167969 C 349.050781 625.355469 350.535156 622.03125 355.34375 622.03125 L 356.058594 622.03125 C 356.769531 618.46875 359.324219 615.738281 363.65625 615.738281 Z M 364.3125 628.621094 L 366.566406 628.621094 L 366.566406 624.109375 C 366.566406 620.664062 365.378906 619.238281 363.359375 619.238281 C 361.105469 619.238281 359.796875 621.199219 359.796875 623.871094 C 359.796875 627.019531 361.164062 628.621094 364.3125 628.621094 Z M 364.3125 628.621094 "/>
<path style=" stroke:none;fill-rule:nonzero;fill:url(#linear1);" d="M 372.566406 632.125 L 376.128906 632.125 L 376.128906 628.621094 L 372.566406 628.621094 Z M 372.566406 632.125 "/>
<path style=" stroke:none;fill-rule:nonzero;fill:url(#linear2);" d="M 375.773438 632.125 L 379.394531 632.125 L 379.394531 628.621094 L 375.773438 628.621094 Z M 375.773438 632.125 "/>
<path style=" stroke:none;fill-rule:nonzero;fill:url(#linear3);" d="M 384.679688 616.152344 L 384.679688 628.621094 L 379.039062 628.621094 L 379.039062 632.125 L 388.65625 632.125 L 388.65625 616.152344 Z M 384.621094 637.234375 C 384.621094 638.480469 385.453125 639.546875 386.578125 639.546875 C 387.707031 639.546875 388.597656 638.480469 388.597656 637.234375 C 388.597656 635.925781 387.707031 634.917969 386.578125 634.917969 C 385.453125 634.917969 384.621094 635.984375 384.621094 637.234375 Z M 379.632812 637.234375 C 379.632812 638.480469 380.464844 639.546875 381.589844 639.546875 C 382.71875 639.546875 383.609375 638.480469 383.609375 637.234375 C 383.609375 635.925781 382.71875 634.917969 381.589844 634.917969 C 380.464844 634.917969 379.632812 635.984375 379.632812 637.234375 Z M 379.632812 637.234375 "/>
<path style=" stroke:none;fill-rule:nonzero;fill:url(#linear4);" d="M 394.121094 619.121094 C 398.8125 620.425781 401.007812 623.574219 401.1875 628.621094 L 392.28125 628.621094 L 392.28125 632.125 L 407.007812 632.125 L 407.007812 628.621094 L 405.046875 628.621094 C 404.691406 621.019531 401.246094 617.222656 395.070312 615.378906 Z M 394.121094 619.121094 "/>
<path style=" stroke:none;fill-rule:nonzero;fill:url(#linear5);" d="M 426.1875 615.4375 C 426.722656 617.992188 427.078125 621.140625 427.078125 624.523438 C 427.078125 625.59375 427.019531 627.257812 426.898438 628.621094 L 425.832031 628.621094 C 423.160156 628.621094 422.507812 627.671875 422.507812 624.820312 L 422.507812 616.863281 L 418.707031 616.863281 L 418.707031 624.941406 C 418.707031 627.433594 418.230469 628.859375 416.507812 628.859375 C 414.726562 628.859375 414.191406 627.492188 414.191406 624.941406 L 414.191406 618.230469 L 410.214844 618.230469 L 410.214844 624.347656 C 410.214844 627.730469 409.5 628.621094 407.542969 628.621094 L 406.589844 628.621094 L 406.589844 632.125 L 407.480469 632.125 C 409.738281 632.125 410.984375 631.234375 411.519531 629.632812 C 411.996094 631.355469 413.597656 632.421875 415.796875 632.421875 C 417.695312 632.421875 419.417969 631.53125 420.128906 629.632812 C 420.785156 631.472656 422.386719 632.125 425 632.125 L 430.582031 632.125 C 430.878906 629.691406 431.058594 626.722656 431.058594 624.226562 C 431.058594 620.84375 430.640625 617.519531 430.105469 614.84375 Z M 426.1875 615.4375 "/>
<path style=" stroke:none;fill-rule:nonzero;fill:url(#linear6);" d="M 453.085938 611.28125 C 453.085938 612.589844 453.980469 613.597656 455.046875 613.597656 C 456.175781 613.597656 457.066406 612.53125 457.066406 611.28125 C 457.066406 609.976562 456.175781 608.964844 455.046875 608.964844 C 453.980469 608.964844 453.085938 610.035156 453.085938 611.28125 Z M 448.101562 611.28125 C 448.101562 612.589844 448.929688 613.597656 450.058594 613.597656 C 451.1875 613.597656 452.078125 612.53125 452.078125 611.28125 C 452.078125 609.976562 451.1875 608.964844 450.058594 608.964844 C 448.929688 608.964844 448.101562 610.035156 448.101562 611.28125 Z M 442.753906 616.746094 C 442.28125 618.171875 441.984375 620.25 441.984375 622.089844 C 441.984375 628.265625 444.832031 632.125 453.027344 632.125 L 461.519531 632.125 L 461.519531 616.152344 L 457.542969 616.152344 L 457.542969 628.621094 L 453.445312 628.621094 C 447.804688 628.621094 445.960938 626.367188 445.960938 621.554688 C 445.960938 619.773438 446.378906 617.519531 446.972656 615.972656 Z M 442.753906 616.746094 "/>
<path style=" stroke:none;fill-rule:nonzero;fill:url(#linear7);" d="M 466.269531 632.125 L 470.25 632.125 L 470.25 608.195312 L 466.269531 608.195312 Z M 466.269531 632.125 "/>
<path style=" stroke:none;fill-rule:nonzero;fill:url(#linear8);" d="M 475.773438 626.542969 C 475.773438 627.554688 476.1875 628.445312 476.839844 628.859375 C 476.1875 628.683594 475.117188 628.621094 474.050781 628.621094 L 474.050781 632.125 L 485.867188 632.125 L 485.867188 628.621094 L 483.195312 628.621094 C 480.640625 628.621094 479.75 627.671875 479.75 626.367188 C 479.75 625.179688 480.582031 624.347656 482.125 624.347656 C 483.195312 624.347656 484.261719 624.585938 484.5625 624.644531 L 485.035156 621.082031 C 484.679688 621.019531 483.550781 620.84375 482.304688 620.84375 C 477.613281 620.84375 475.773438 623.695312 475.773438 626.542969 Z M 475.773438 626.542969 "/>
<path style=" stroke:none;fill-rule:nonzero;fill:url(#linear9);" d="M 490.203125 608.195312 L 490.203125 632.125 L 497.148438 632.125 L 497.148438 628.621094 L 494.121094 628.621094 L 494.121094 608.195312 Z M 490.203125 608.195312 "/>
<path style=" stroke:none;fill-rule:nonzero;fill:url(#linear10);" d="M 508.730469 606.652344 C 508.730469 607.839844 509.5625 608.789062 510.570312 608.789062 C 511.640625 608.789062 512.410156 607.839844 512.410156 606.652344 C 512.410156 605.464844 511.640625 604.511719 510.570312 604.511719 C 509.5625 604.511719 508.730469 605.464844 508.730469 606.652344 Z M 511.105469 611.28125 C 511.105469 612.589844 511.9375 613.597656 513.125 613.597656 C 514.191406 613.597656 515.082031 612.53125 515.082031 611.28125 C 515.082031 609.976562 514.191406 608.964844 513.125 608.964844 C 511.9375 608.964844 511.105469 610.035156 511.105469 611.28125 Z M 506.117188 611.28125 C 506.117188 612.589844 507.007812 613.597656 508.074219 613.597656 C 509.203125 613.597656 510.09375 612.53125 510.09375 611.28125 C 510.09375 609.976562 509.203125 608.964844 508.074219 608.964844 C 507.007812 608.964844 506.117188 610.035156 506.117188 611.28125 Z M 516.332031 615.4375 C 516.863281 617.992188 517.222656 621.140625 517.222656 624.523438 C 517.222656 625.59375 517.101562 627.257812 516.984375 628.621094 L 515.972656 628.621094 C 513.300781 628.621094 512.648438 627.671875 512.648438 624.820312 L 512.648438 616.863281 L 508.847656 616.863281 L 508.847656 624.941406 C 508.847656 627.433594 508.371094 628.859375 506.652344 628.859375 C 504.871094 628.859375 504.335938 627.492188 504.335938 624.941406 L 504.335938 618.230469 L 500.355469 618.230469 L 500.355469 624.347656 C 500.355469 627.730469 499.644531 628.621094 497.683594 628.621094 L 496.675781 628.621094 L 496.675781 632.125 L 497.625 632.125 C 499.882812 632.125 501.070312 631.234375 501.664062 629.632812 C 502.136719 631.355469 503.683594 632.421875 505.878906 632.421875 C 507.777344 632.421875 509.5625 631.53125 510.273438 629.632812 C 510.925781 631.472656 512.53125 632.125 515.140625 632.125 L 523.992188 632.125 L 523.992188 628.621094 L 521.019531 628.621094 C 521.140625 627.078125 521.199219 625.59375 521.199219 624.226562 C 521.199219 620.84375 520.785156 617.519531 520.25 614.84375 Z M 516.332031 615.4375 "/>
<path style=" stroke:none;fill-rule:nonzero;fill:url(#linear11);" d="M 527.671875 610.984375 C 527.671875 612.292969 528.5625 613.300781 529.75 613.300781 C 530.878906 613.300781 531.828125 612.292969 531.828125 610.984375 C 531.828125 609.679688 530.878906 608.667969 529.75 608.667969 C 528.5625 608.667969 527.671875 609.679688 527.671875 610.984375 Z M 527.730469 616.152344 L 527.730469 628.621094 L 523.515625 628.621094 L 523.515625 632.125 L 531.710938 632.125 L 531.710938 616.152344 Z M 527.730469 616.152344 "/>
<path style=" stroke:none;fill-rule:nonzero;fill:url(#linear12);" d="M 536.519531 632.125 L 540.5 632.125 L 540.5 608.195312 L 536.519531 608.195312 Z M 535.15625 637.765625 C 535.15625 638.300781 535.332031 638.65625 535.570312 638.894531 C 535.15625 638.777344 534.621094 638.777344 534.085938 638.777344 L 534.085938 641.210938 L 541.6875 641.210938 L 541.6875 638.777344 L 539.90625 638.777344 C 538.539062 638.777344 538.003906 638.359375 538.003906 637.707031 C 538.003906 637.113281 538.480469 636.699219 539.3125 636.699219 C 539.964844 636.699219 540.558594 636.875 540.796875 636.875 L 541.152344 634.441406 C 540.914062 634.382812 540.140625 634.261719 539.371094 634.261719 C 536.460938 634.261719 535.15625 635.925781 535.15625 637.765625 Z M 535.15625 637.765625 "/>
<path style=" stroke:none;fill-rule:evenodd;fill:url(#linear13);" d="M 561.578125 608.964844 C 562.707031 608.964844 563.597656 609.976562 563.597656 611.28125 C 563.597656 612.53125 562.707031 613.597656 561.578125 613.597656 C 560.453125 613.597656 559.621094 612.589844 559.621094 611.28125 C 559.621094 610.035156 560.453125 608.964844 561.578125 608.964844 Z M 556.589844 608.964844 C 557.71875 608.964844 558.609375 609.976562 558.609375 611.28125 C 558.609375 612.53125 557.71875 613.597656 556.589844 613.597656 C 555.464844 613.597656 554.632812 612.589844 554.632812 611.28125 C 554.632812 610.035156 555.464844 608.964844 556.589844 608.964844 Z M 559.5 615.738281 C 563.0625 615.738281 565.796875 616.925781 565.796875 616.925781 L 565.796875 628.621094 L 568.707031 628.621094 L 568.707031 632.125 L 559.5625 632.125 C 553.683594 632.125 551.484375 629.097656 551.484375 624.226562 C 551.484375 619.832031 553.980469 615.738281 559.5 615.738281 Z M 559.976562 628.621094 L 561.9375 628.621094 L 561.9375 619.894531 C 561.9375 619.894531 560.75 619.238281 559.085938 619.238281 C 556.828125 619.238281 555.464844 621.199219 555.464844 623.871094 C 555.464844 626.960938 556.828125 628.621094 559.976562 628.621094 Z M 559.976562 628.621094 "/>
<path style=" stroke:none;fill-rule:nonzero;fill:url(#linear14);" d="M 587.886719 615.4375 C 588.421875 617.992188 588.777344 621.140625 588.777344 624.523438 C 588.777344 625.59375 588.71875 627.257812 588.597656 628.621094 L 587.53125 628.621094 C 584.859375 628.621094 584.203125 627.671875 584.203125 624.820312 L 584.203125 616.863281 L 580.402344 616.863281 L 580.402344 624.941406 C 580.402344 627.433594 579.929688 628.859375 578.207031 628.859375 C 576.425781 628.859375 575.890625 627.492188 575.890625 624.941406 L 575.890625 618.230469 L 571.914062 618.230469 L 571.914062 624.347656 C 571.914062 627.730469 571.199219 628.621094 569.238281 628.621094 L 568.289062 628.621094 L 568.289062 632.125 L 569.179688 632.125 C 571.4375 632.125 572.683594 631.234375 573.21875 629.632812 C 573.695312 631.355469 575.296875 632.421875 577.492188 632.421875 C 579.394531 632.421875 581.117188 631.53125 581.828125 629.632812 C 582.480469 631.472656 584.085938 632.125 586.699219 632.125 L 595.546875 632.125 L 595.546875 628.621094 L 592.578125 628.621094 C 592.695312 627.078125 592.753906 625.59375 592.753906 624.226562 C 592.753906 620.84375 592.339844 617.519531 591.804688 614.84375 Z M 587.886719 615.4375 "/>
<path style=" stroke:none;fill-rule:nonzero;fill:url(#linear15);" d="M 614.726562 615.4375 C 615.261719 617.992188 615.617188 621.140625 615.617188 624.523438 C 615.617188 625.59375 615.558594 627.257812 615.378906 628.621094 L 614.371094 628.621094 C 611.699219 628.621094 611.046875 627.671875 611.046875 624.820312 L 611.046875 616.863281 L 607.246094 616.863281 L 607.246094 624.941406 C 607.246094 627.433594 606.769531 628.859375 605.046875 628.859375 C 603.265625 628.859375 602.730469 627.492188 602.730469 624.941406 L 602.730469 618.230469 L 598.753906 618.230469 L 598.753906 624.347656 C 598.753906 627.730469 598.039062 628.621094 596.082031 628.621094 L 595.128906 628.621094 L 595.128906 632.125 L 596.019531 632.125 C 598.277344 632.125 599.523438 631.234375 600.058594 629.632812 C 600.535156 631.355469 602.136719 632.421875 604.335938 632.421875 C 606.175781 632.421875 607.957031 631.53125 608.667969 629.632812 C 609.324219 631.472656 610.925781 632.125 613.539062 632.125 L 619.121094 632.125 C 619.417969 629.691406 619.597656 626.722656 619.597656 624.226562 C 619.597656 620.84375 619.179688 617.519531 618.644531 614.84375 Z M 614.726562 615.4375 "/>
<path style=" stroke:none;fill-rule:evenodd;fill:url(#linear16);" d="M 631.949219 605.820312 C 632.71875 605.820312 633.492188 605.9375 633.730469 605.9375 L 633.3125 608.492188 C 633.195312 608.492188 632.542969 608.3125 631.828125 608.3125 C 630.878906 608.3125 630.402344 608.789062 630.402344 609.5 C 630.402344 610.214844 630.9375 610.808594 632.480469 610.808594 L 634.203125 610.808594 L 634.203125 613.300781 L 626.425781 613.300781 L 626.425781 610.808594 C 627.078125 610.808594 627.730469 610.808594 628.148438 610.925781 C 627.789062 610.6875 627.554688 610.09375 627.554688 609.621094 C 627.554688 607.71875 628.742188 605.820312 631.949219 605.820312 Z M 630.761719 615.738281 C 634.324219 615.738281 637.054688 616.925781 637.054688 616.925781 L 637.054688 628.621094 L 640.023438 628.621094 L 640.023438 632.125 L 637.054688 632.125 L 637.054688 632.183594 C 637.054688 636.875 634.382812 640.675781 627.671875 640.675781 C 625.414062 640.675781 623.101562 640.261719 623.101562 640.261719 L 623.335938 636.578125 C 623.335938 636.578125 625.652344 637.171875 628.027344 637.171875 C 631.117188 637.171875 633.195312 635.808594 633.195312 632.660156 L 633.195312 632.125 L 630.878906 632.125 C 625 632.125 622.804688 629.097656 622.804688 624.226562 C 622.804688 619.832031 625.238281 615.738281 630.761719 615.738281 Z M 631.292969 628.621094 L 633.195312 628.621094 L 633.195312 619.894531 C 633.195312 619.894531 632.066406 619.238281 630.34375 619.238281 C 628.085938 619.238281 626.78125 621.199219 626.78125 623.871094 C 626.78125 626.960938 628.148438 628.621094 631.292969 628.621094 Z M 631.292969 628.621094 "/>
<path style=" stroke:none;fill-rule:evenodd;fill:url(#linear17);" d="M 650.117188 615.738281 C 654.929688 615.738281 657.066406 618.882812 657.066406 623.8125 L 657.066406 632.125 L 650.179688 632.125 C 646.613281 632.125 644.894531 631.175781 644.003906 629.511719 C 643.230469 631.292969 641.804688 632.125 640.023438 632.125 L 639.546875 632.125 L 639.546875 628.621094 L 640.140625 628.621094 C 641.628906 628.621094 642.398438 627.613281 642.398438 624.523438 C 642.398438 619.65625 645.070312 615.738281 650.117188 615.738281 Z M 650.59375 628.621094 L 653.148438 628.621094 L 653.148438 624.347656 C 653.148438 620.785156 652.019531 619.238281 649.820312 619.238281 C 647.625 619.238281 646.316406 621.257812 646.316406 624.109375 C 646.316406 627.078125 647.507812 628.621094 650.59375 628.621094 Z M 650.59375 628.621094 "/>
<path style=" stroke:none;fill-rule:evenodd;fill:url(#linear18);" d="M 351.484375 653.148438 C 352.039062 653.148438 352.492188 653.363281 352.851562 653.800781 C 353.246094 654.195312 353.445312 654.710938 353.445312 655.34375 C 353.445312 655.9375 353.246094 656.453125 352.851562 656.886719 C 352.492188 657.324219 352.039062 657.542969 351.484375 657.542969 C 350.929688 657.542969 350.457031 657.324219 350.058594 656.886719 C 349.703125 656.453125 349.523438 655.9375 349.523438 655.34375 C 349.523438 654.710938 349.703125 654.195312 350.058594 653.800781 C 350.457031 653.363281 350.929688 653.148438 351.484375 653.148438 Z M 346.972656 653.148438 C 347.484375 653.148438 347.941406 653.363281 348.335938 653.800781 C 348.695312 654.195312 348.871094 654.710938 348.871094 655.34375 C 348.871094 655.9375 348.695312 656.453125 348.335938 656.886719 C 347.941406 657.324219 347.484375 657.542969 346.972656 657.542969 C 346.378906 657.542969 345.902344 657.324219 345.546875 656.886719 C 345.152344 656.453125 344.953125 655.9375 344.953125 655.34375 C 344.953125 654.710938 345.152344 654.195312 345.546875 653.800781 C 345.902344 653.363281 346.378906 653.148438 346.972656 653.148438 Z M 348.277344 659.144531 C 348.949219 659.144531 349.625 659.203125 350.296875 659.324219 C 350.96875 659.441406 351.601562 659.5625 352.195312 659.679688 C 352.75 659.796875 353.324219 659.9375 353.917969 660.09375 L 353.917969 668.644531 C 353.917969 668.804688 353.980469 668.941406 354.097656 669.0625 C 354.214844 669.140625 354.335938 669.179688 354.453125 669.179688 L 356.589844 669.179688 L 356.589844 672.863281 L 353.980469 672.863281 C 353.425781 672.863281 352.96875 672.742188 352.613281 672.507812 C 352.257812 672.269531 351.960938 671.992188 351.722656 671.675781 C 351.367188 671.992188 350.910156 672.289062 350.355469 672.566406 C 349.800781 672.882812 349.050781 673.039062 348.101562 673.039062 C 347.507812 673.039062 346.871094 672.960938 346.199219 672.804688 C 345.527344 672.605469 344.914062 672.25 344.359375 671.734375 C 343.84375 671.21875 343.410156 670.507812 343.050781 669.597656 C 342.734375 668.644531 342.578125 667.398438 342.578125 665.855469 C 342.578125 664.945312 342.675781 664.074219 342.875 663.242188 C 343.070312 662.410156 343.390625 661.699219 343.824219 661.105469 C 344.300781 660.511719 344.894531 660.035156 345.605469 659.679688 C 346.316406 659.324219 347.210938 659.144531 348.277344 659.144531 Z M 348.335938 669.476562 C 348.652344 669.476562 348.949219 669.4375 349.226562 669.359375 C 349.503906 669.28125 349.742188 669.179688 349.941406 669.0625 C 350.136719 668.941406 350.335938 668.804688 350.535156 668.644531 L 350.535156 662.886719 C 350.179688 662.765625 349.820312 662.707031 349.464844 662.707031 C 349.070312 662.667969 348.753906 662.648438 348.515625 662.648438 C 348.160156 662.648438 347.824219 662.707031 347.507812 662.828125 C 347.1875 662.90625 346.914062 663.0625 346.675781 663.300781 C 346.4375 663.539062 346.257812 663.875 346.140625 664.3125 C 345.980469 664.746094 345.902344 665.28125 345.902344 665.914062 C 345.902344 667.179688 346.121094 668.09375 346.554688 668.644531 C 346.992188 669.199219 347.585938 669.476562 348.335938 669.476562 Z M 348.335938 669.476562 "/>
<path style=" stroke:none;fill-rule:evenodd;fill:url(#linear19);" d="M 364.429688 659.5 C 364.90625 659.5 365.417969 659.5625 365.972656 659.679688 C 366.566406 659.757812 367.140625 659.878906 367.695312 660.035156 C 368.210938 660.195312 368.765625 660.351562 369.359375 660.511719 L 369.359375 668.644531 C 369.359375 669.28125 369.300781 669.894531 369.179688 670.488281 C 369.101562 671.082031 368.902344 671.613281 368.585938 672.089844 C 368.308594 672.566406 367.894531 672.960938 367.339844 673.277344 C 366.785156 673.554688 366.074219 673.695312 365.203125 673.695312 C 364.84375 673.695312 364.390625 673.652344 363.835938 673.574219 C 363.242188 673.457031 362.726562 673.355469 362.292969 673.277344 C 361.855469 673.160156 361.34375 673.019531 360.75 672.863281 L 355.523438 672.863281 L 355.523438 669.179688 L 358.074219 669.179688 C 357.996094 668.785156 357.917969 668.328125 357.839844 667.816406 C 357.757812 667.339844 357.71875 666.824219 357.71875 666.269531 C 357.71875 665.242188 357.878906 664.3125 358.195312 663.480469 C 358.511719 662.648438 358.964844 661.957031 359.5625 661.402344 C 360.113281 660.808594 360.808594 660.332031 361.640625 659.976562 C 362.46875 659.660156 363.402344 659.5 364.429688 659.5 Z M 365.140625 670.128906 C 365.417969 670.128906 365.636719 670.03125 365.796875 669.832031 C 365.992188 669.636719 366.09375 669.320312 366.09375 668.882812 L 366.09375 663.421875 C 365.894531 663.339844 365.65625 663.28125 365.378906 663.242188 C 365.101562 663.203125 364.804688 663.183594 364.488281 663.183594 C 363.894531 663.183594 363.378906 663.28125 362.945312 663.480469 C 362.511719 663.679688 362.152344 663.914062 361.875 664.191406 C 361.558594 664.507812 361.34375 664.867188 361.222656 665.261719 C 361.066406 665.65625 360.984375 666.054688 360.984375 666.449219 C 360.984375 666.804688 361.003906 667.160156 361.046875 667.519531 C 361.085938 667.835938 361.125 668.132812 361.164062 668.410156 C 361.242188 668.726562 361.300781 669.023438 361.34375 669.300781 C 361.660156 669.378906 362.113281 669.496094 362.707031 669.65625 C 363.339844 669.8125 363.835938 669.933594 364.191406 670.011719 C 364.546875 670.089844 364.867188 670.128906 365.140625 670.128906 Z M 365.140625 670.128906 "/>
<path style=" stroke:none;fill-rule:nonzero;fill:url(#linear20);" d="M 372.921875 652.195312 L 372.921875 665.972656 C 372.921875 667.042969 373.019531 668.011719 373.21875 668.882812 C 373.375 669.714844 373.671875 670.425781 374.109375 671.019531 C 374.542969 671.613281 375.136719 672.070312 375.890625 672.386719 C 376.601562 672.703125 377.535156 672.863281 378.683594 672.863281 L 379.871094 672.863281 L 379.871094 669.179688 L 378.683594 669.179688 C 377.851562 669.179688 377.257812 669.003906 376.898438 668.644531 C 376.503906 668.25 376.304688 667.695312 376.304688 666.984375 L 376.304688 653.742188 C 376.304688 652.710938 375.871094 652.195312 375 652.195312 Z M 372.921875 652.195312 "/>
<path style=" stroke:none;fill-rule:nonzero;fill:url(#linear21);" d="M 379.039062 672.863281 L 389.90625 672.863281 L 389.90625 669.179688 L 379.039062 669.179688 Z M 379.039062 672.863281 "/>
<path style=" stroke:none;fill-rule:nonzero;fill:url(#linear22);" d="M 389.3125 672.863281 L 400.179688 672.863281 L 400.179688 669.179688 L 389.3125 669.179688 Z M 389.3125 672.863281 "/>
<path style=" stroke:none;fill-rule:nonzero;fill:url(#linear23);" d="M 399.585938 672.863281 L 410.453125 672.863281 L 410.453125 669.179688 L 399.585938 669.179688 Z M 399.585938 672.863281 "/>
<path style=" stroke:none;fill-rule:nonzero;fill:url(#linear24);" d="M 409.859375 672.863281 L 420.785156 672.863281 L 420.785156 669.179688 L 409.859375 669.179688 Z M 409.859375 672.863281 "/>
<path style=" stroke:none;fill-rule:nonzero;fill:url(#linear25);" d="M 420.191406 672.863281 L 431.058594 672.863281 L 431.058594 669.179688 L 420.191406 669.179688 Z M 420.191406 672.863281 "/>
<path style=" stroke:none;fill-rule:nonzero;fill:url(#linear26);" d="M 430.464844 672.863281 L 441.332031 672.863281 L 441.332031 669.179688 L 430.464844 669.179688 Z M 430.464844 672.863281 "/>
<path style=" stroke:none;fill-rule:evenodd;fill:url(#linear27);" d="M 450.117188 659.144531 C 450.949219 659.144531 451.761719 659.261719 452.554688 659.5 C 453.34375 659.738281 454.039062 660.132812 454.632812 660.6875 C 455.226562 661.242188 455.699219 661.9375 456.058594 662.765625 C 456.414062 663.636719 456.589844 664.648438 456.589844 665.796875 L 454.039062 669.179688 L 459.621094 669.179688 L 459.621094 672.863281 L 451.722656 672.863281 C 451.285156 672.863281 450.910156 672.742188 450.59375 672.507812 C 450.277344 672.269531 450.097656 671.972656 450.058594 671.613281 C 450.019531 672.011719 449.839844 672.308594 449.523438 672.507812 C 449.207031 672.742188 448.890625 672.863281 448.574219 672.863281 L 440.4375 672.863281 L 440.4375 669.179688 L 446.019531 669.179688 L 443.527344 665.796875 C 443.527344 664.6875 443.707031 663.71875 444.0625 662.886719 C 444.457031 662.054688 444.953125 661.363281 445.546875 660.808594 C 446.179688 660.253906 446.890625 659.835938 447.683594 659.5625 C 448.476562 659.285156 449.289062 659.144531 450.117188 659.144531 Z M 450.058594 669.0625 L 453.265625 664.785156 C 453.226562 664.507812 453.128906 664.25 452.96875 664.015625 C 452.8125 663.738281 452.613281 663.5 452.375 663.300781 C 452.097656 663.0625 451.78125 662.867188 451.425781 662.707031 C 451.027344 662.589844 450.59375 662.53125 450.117188 662.53125 C 449.644531 662.53125 449.207031 662.609375 448.8125 662.765625 C 448.417969 662.886719 448.078125 663.0625 447.804688 663.300781 C 447.527344 663.539062 447.308594 663.796875 447.148438 664.074219 C 446.992188 664.351562 446.871094 664.589844 446.792969 664.785156 Z M 450.058594 669.0625 "/>
<path style=" stroke:none;fill-rule:nonzero;fill:url(#linear28);" d="M 463.953125 652.195312 C 463.042969 652.195312 462.589844 652.710938 462.589844 653.742188 L 462.589844 666.925781 C 462.589844 667.675781 462.410156 668.230469 462.054688 668.585938 C 461.660156 668.984375 461.046875 669.179688 460.214844 669.179688 L 458.550781 669.179688 L 458.550781 672.863281 L 460.214844 672.863281 C 461.363281 672.863281 462.3125 672.703125 463.0625 672.386719 C 463.777344 672.070312 464.351562 671.613281 464.785156 671.019531 C 465.261719 670.425781 465.578125 669.695312 465.738281 668.824219 C 465.894531 667.992188 465.972656 667.042969 465.972656 665.972656 L 465.972656 652.195312 Z M 463.953125 652.195312 "/>
<path style=" stroke:none;fill-rule:nonzero;fill:url(#linear29);" d="M 470.785156 652.195312 C 469.914062 652.195312 469.476562 652.710938 469.476562 653.742188 L 469.476562 672.863281 L 471.496094 672.863281 C 472.40625 672.863281 472.863281 672.347656 472.863281 671.316406 L 472.863281 652.195312 Z M 470.785156 652.195312 "/>
<path style=" stroke:none;fill-rule:nonzero;fill:url(#linear30);" d="M 494.417969 656.769531 C 494.023438 657.203125 493.824219 657.71875 493.824219 658.3125 C 493.824219 658.945312 494.023438 659.460938 494.417969 659.859375 C 494.8125 660.292969 495.269531 660.511719 495.785156 660.511719 C 496.339844 660.511719 496.8125 660.292969 497.210938 659.859375 C 497.566406 659.460938 497.742188 658.945312 497.742188 658.3125 C 497.742188 657.71875 497.566406 657.203125 497.210938 656.769531 C 496.8125 656.335938 496.339844 656.117188 495.785156 656.117188 C 495.269531 656.117188 494.8125 656.335938 494.417969 656.769531 Z M 489.84375 656.769531 C 489.449219 657.203125 489.25 657.71875 489.25 658.3125 C 489.25 658.945312 489.449219 659.460938 489.84375 659.859375 C 490.242188 660.292969 490.714844 660.511719 491.269531 660.511719 C 491.785156 660.511719 492.242188 660.292969 492.636719 659.859375 C 493.03125 659.460938 493.230469 658.945312 493.230469 658.3125 C 493.230469 657.71875 493.03125 657.203125 492.636719 656.769531 C 492.242188 656.335938 491.785156 656.117188 491.269531 656.117188 C 490.714844 656.117188 490.242188 656.335938 489.84375 656.769531 Z M 502.316406 660.214844 C 501.40625 660.214844 500.949219 660.726562 500.949219 661.757812 L 500.949219 666.628906 C 500.949219 667.457031 500.8125 668.09375 500.535156 668.527344 C 500.257812 668.960938 499.664062 669.179688 498.753906 669.179688 L 490.320312 669.179688 C 489.804688 669.179688 489.332031 669.140625 488.894531 669.0625 C 488.421875 668.984375 488.003906 668.824219 487.648438 668.585938 C 487.292969 668.390625 486.996094 668.09375 486.757812 667.695312 C 486.558594 667.339844 486.460938 666.863281 486.460938 666.269531 C 486.460938 665.953125 486.480469 665.675781 486.519531 665.4375 C 486.558594 665.203125 486.621094 664.804688 486.699219 664.25 C 486.816406 663.699219 486.835938 663.300781 486.757812 663.0625 C 486.679688 662.828125 486.460938 662.628906 486.105469 662.46875 C 485.472656 662.273438 484.796875 662.054688 484.085938 661.816406 C 483.925781 662.253906 483.789062 662.707031 483.667969 663.183594 C 483.550781 663.65625 483.453125 664.191406 483.371094 664.785156 C 483.292969 665.339844 483.253906 665.933594 483.253906 666.566406 C 483.253906 667.398438 483.371094 668.191406 483.609375 668.941406 C 483.847656 669.695312 484.203125 670.367188 484.679688 670.960938 C 485.195312 671.554688 485.847656 672.011719 486.640625 672.328125 C 487.429688 672.683594 488.402344 672.863281 489.546875 672.863281 L 498.632812 672.863281 C 499.78125 672.863281 500.730469 672.703125 501.484375 672.386719 C 502.238281 672.070312 502.8125 671.65625 503.207031 671.140625 C 503.640625 670.585938 503.9375 669.914062 504.097656 669.121094 C 504.253906 668.367188 504.335938 667.519531 504.335938 666.566406 L 504.335938 660.214844 Z M 502.316406 660.214844 "/>
<path style=" stroke:none;fill-rule:nonzero;fill:url(#linear31);" d="M 521.378906 652.195312 C 520.507812 652.195312 520.070312 652.730469 520.070312 653.800781 L 520.070312 666.925781 C 520.070312 667.675781 519.875 668.230469 519.476562 668.585938 C 519.121094 668.984375 518.527344 669.179688 517.695312 669.179688 L 516.035156 669.179688 L 516.035156 657.957031 L 514.015625 657.957031 C 513.105469 657.957031 512.648438 658.472656 512.648438 659.5 L 512.648438 669.179688 L 508.550781 669.179688 C 507.71875 669.179688 507.304688 669.714844 507.304688 670.785156 L 507.304688 672.863281 L 517.753906 672.863281 C 518.863281 672.863281 519.792969 672.703125 520.546875 672.386719 C 521.257812 672.070312 521.832031 671.613281 522.269531 671.019531 C 522.703125 670.425781 523 669.714844 523.160156 668.882812 C 523.355469 668.011719 523.457031 667.042969 523.457031 665.972656 L 523.457031 652.195312 Z M 521.378906 652.195312 "/>
<path style=" stroke:none;fill-rule:evenodd;fill:url(#linear32);" d="M 533.492188 659.5 C 534.402344 659.5 535.273438 659.621094 536.105469 659.859375 C 536.976562 660.054688 537.765625 660.273438 538.480469 660.511719 L 538.480469 672.328125 C 538.480469 674.269531 538.359375 675.710938 538.125 676.664062 C 537.886719 677.613281 537.53125 678.386719 537.054688 678.980469 C 536.621094 679.53125 536.046875 679.929688 535.332031 680.167969 C 534.660156 680.402344 533.847656 680.523438 532.898438 680.523438 C 532.738281 680.523438 532.523438 680.523438 532.246094 680.523438 C 531.96875 680.484375 531.691406 680.445312 531.414062 680.402344 C 531.097656 680.402344 530.820312 680.363281 530.582031 680.285156 C 530.304688 680.246094 530.066406 680.1875 529.871094 680.105469 C 529.511719 679.949219 529.253906 679.730469 529.097656 679.453125 C 528.898438 679.214844 528.878906 678.820312 529.039062 678.265625 L 529.394531 676.304688 C 529.949219 676.464844 530.542969 676.601562 531.175781 676.722656 C 531.769531 676.839844 532.34375 676.898438 532.898438 676.898438 C 533.414062 676.898438 533.828125 676.800781 534.144531 676.601562 C 534.460938 676.40625 534.699219 676.128906 534.859375 675.773438 C 534.976562 675.457031 535.054688 675.078125 535.09375 674.644531 C 535.132812 674.246094 535.15625 673.59375 535.15625 672.683594 C 534.917969 672.761719 534.660156 672.824219 534.382812 672.863281 C 534.066406 672.902344 533.730469 672.921875 533.371094 672.921875 C 532.699219 672.921875 531.988281 672.84375 531.234375 672.683594 C 530.484375 672.527344 529.769531 672.230469 529.097656 671.792969 C 528.425781 671.359375 527.890625 670.703125 527.492188 669.832031 C 527.136719 668.921875 526.960938 667.773438 526.960938 666.390625 C 526.960938 665.121094 527.117188 664.035156 527.433594 663.125 C 527.789062 662.214844 528.265625 661.5 528.859375 660.984375 C 529.492188 660.472656 530.207031 660.09375 530.996094 659.859375 C 531.789062 659.621094 532.621094 659.5 533.492188 659.5 Z M 533.433594 669.359375 C 533.867188 669.359375 534.203125 669.339844 534.441406 669.300781 C 534.71875 669.257812 534.9375 669.199219 535.09375 669.121094 L 535.09375 663.183594 C 534.859375 663.105469 534.582031 663.042969 534.261719 663.003906 C 533.945312 662.964844 533.648438 662.945312 533.371094 662.945312 C 532.421875 662.945312 531.691406 663.203125 531.175781 663.71875 C 530.621094 664.191406 530.34375 665.042969 530.34375 666.269531 C 530.34375 666.863281 530.402344 667.398438 530.523438 667.875 C 530.640625 668.308594 530.9375 668.664062 531.414062 668.941406 C 531.847656 669.21875 532.523438 669.359375 533.433594 669.359375 Z M 533.433594 669.359375 "/>
<path style=" stroke:none;fill-rule:nonzero;fill:url(#linear33);" d="M 541.628906 652.195312 L 541.628906 665.972656 C 541.628906 667.042969 541.726562 668.011719 541.925781 668.882812 C 542.082031 669.714844 542.378906 670.425781 542.816406 671.019531 C 543.25 671.613281 543.84375 672.070312 544.597656 672.386719 C 545.308594 672.703125 546.238281 672.863281 547.386719 672.863281 L 548.574219 672.863281 L 548.574219 669.179688 L 547.445312 669.179688 C 546.574219 669.179688 545.960938 669.003906 545.605469 668.644531 C 545.210938 668.25 545.011719 667.695312 545.011719 666.984375 L 545.011719 653.742188 C 545.011719 652.710938 544.578125 652.195312 543.707031 652.195312 Z M 541.628906 652.195312 "/>
<path style=" stroke:none;fill-rule:nonzero;fill:url(#linear34);" d="M 547.742188 672.863281 L 558.609375 672.863281 L 558.609375 669.179688 L 547.742188 669.179688 Z M 547.742188 672.863281 "/>
<path style=" stroke:none;fill-rule:nonzero;fill:url(#linear35);" d="M 558.015625 672.863281 L 568.882812 672.863281 L 568.882812 669.179688 L 558.015625 669.179688 Z M 558.015625 672.863281 "/>
<path style=" stroke:none;fill-rule:nonzero;fill:url(#linear36);" d="M 568.289062 672.863281 L 579.214844 672.863281 L 579.214844 669.179688 L 568.289062 669.179688 Z M 568.289062 672.863281 "/>
<path style=" stroke:none;fill-rule:nonzero;fill:url(#linear37);" d="M 578.5625 672.863281 L 589.488281 672.863281 L 589.488281 669.179688 L 578.5625 669.179688 Z M 578.5625 672.863281 "/>
<path style=" stroke:none;fill-rule:nonzero;fill:url(#linear38);" d="M 588.894531 672.863281 L 599.761719 672.863281 L 599.761719 669.179688 L 588.894531 669.179688 Z M 588.894531 672.863281 "/>
<path style=" stroke:none;fill-rule:nonzero;fill:url(#linear39);" d="M 599.167969 672.863281 L 610.035156 672.863281 L 610.035156 669.179688 L 599.167969 669.179688 Z M 599.167969 672.863281 "/>
<path style=" stroke:none;fill-rule:evenodd;fill:url(#linear40);" d="M 619.714844 653.148438 C 620.269531 653.148438 620.746094 653.363281 621.140625 653.800781 C 621.496094 654.234375 621.675781 654.75 621.675781 655.34375 C 621.675781 655.976562 621.496094 656.511719 621.140625 656.949219 C 620.746094 657.382812 620.269531 657.601562 619.714844 657.601562 C 619.199219 657.601562 618.746094 657.382812 618.347656 656.949219 C 617.953125 656.511719 617.753906 655.976562 617.753906 655.34375 C 617.753906 654.75 617.953125 654.234375 618.347656 653.800781 C 618.746094 653.363281 619.199219 653.148438 619.714844 653.148438 Z M 615.203125 653.148438 C 615.757812 653.148438 616.210938 653.363281 616.566406 653.800781 C 616.964844 654.234375 617.160156 654.75 617.160156 655.34375 C 617.160156 655.976562 616.964844 656.511719 616.566406 656.949219 C 616.210938 657.382812 615.757812 657.601562 615.203125 657.601562 C 614.648438 657.601562 614.171875 657.382812 613.777344 656.949219 C 613.421875 656.511719 613.242188 655.976562 613.242188 655.34375 C 613.242188 654.75 613.421875 654.234375 613.777344 653.800781 C 614.171875 653.363281 614.648438 653.148438 615.203125 653.148438 Z M 617.339844 659.144531 C 619.320312 659.144531 620.785156 659.738281 621.734375 660.925781 C 622.722656 662.113281 623.21875 663.65625 623.21875 665.558594 C 623.21875 666.308594 623.078125 667.003906 622.804688 667.636719 C 622.527344 668.269531 622.25 668.785156 621.972656 669.179688 L 625.59375 669.179688 L 625.59375 672.863281 L 609.144531 672.863281 L 609.144531 669.179688 L 612.765625 669.179688 C 612.488281 668.785156 612.214844 668.269531 611.9375 667.636719 C 611.660156 667.003906 611.519531 666.308594 611.519531 665.558594 C 611.519531 664.609375 611.640625 663.738281 611.875 662.945312 C 612.074219 662.152344 612.410156 661.480469 612.886719 660.925781 C 613.359375 660.371094 613.953125 659.9375 614.667969 659.621094 C 615.417969 659.304688 616.308594 659.144531 617.339844 659.144531 Z M 617.398438 669.179688 C 617.714844 668.984375 618.011719 668.746094 618.289062 668.46875 C 618.605469 668.230469 618.882812 667.953125 619.121094 667.636719 C 619.359375 667.320312 619.554688 666.984375 619.714844 666.628906 C 619.914062 666.269531 620.011719 665.894531 620.011719 665.5 C 620.011719 664.667969 619.753906 663.976562 619.238281 663.421875 C 618.765625 662.90625 618.132812 662.648438 617.339844 662.648438 C 616.390625 662.648438 615.714844 662.925781 615.320312 663.480469 C 614.925781 664.074219 614.726562 664.746094 614.726562 665.5 C 614.726562 666.25 614.964844 666.902344 615.4375 667.457031 C 615.914062 668.050781 616.566406 668.625 617.398438 669.179688 Z M 617.398438 669.179688 "/>
<path style=" stroke:none;fill-rule:evenodd;fill:url(#linear41);" d="M 633.433594 659.5 C 633.90625 659.5 634.441406 659.5625 635.035156 659.679688 C 635.589844 659.757812 636.144531 659.878906 636.699219 660.035156 C 637.214844 660.195312 637.765625 660.351562 638.359375 660.511719 L 638.359375 668.585938 C 638.519531 668.707031 638.777344 668.84375 639.132812 669.003906 C 639.488281 669.121094 639.984375 669.179688 640.617188 669.179688 L 641.746094 669.179688 L 641.746094 672.863281 L 640.617188 672.863281 C 640.222656 672.863281 639.765625 672.78125 639.25 672.625 C 638.738281 672.507812 638.222656 672.269531 637.707031 671.914062 C 637.351562 672.507812 636.894531 672.960938 636.34375 673.277344 C 635.789062 673.554688 635.074219 673.695312 634.203125 673.695312 C 633.847656 673.695312 633.394531 673.652344 632.839844 673.574219 C 632.246094 673.457031 631.730469 673.355469 631.292969 673.277344 C 630.859375 673.160156 630.34375 673.019531 629.75 672.863281 L 624.523438 672.863281 L 624.523438 669.179688 L 627.078125 669.179688 C 627.039062 668.785156 626.980469 668.328125 626.898438 667.816406 C 626.78125 667.339844 626.722656 666.824219 626.722656 666.269531 C 626.722656 665.242188 626.878906 664.3125 627.195312 663.480469 C 627.515625 662.648438 627.96875 661.957031 628.5625 661.402344 C 629.15625 660.808594 629.847656 660.332031 630.640625 659.976562 C 631.472656 659.660156 632.402344 659.5 633.433594 659.5 Z M 634.144531 670.128906 C 634.421875 670.128906 634.660156 670.03125 634.859375 669.832031 C 635.015625 669.636719 635.09375 669.320312 635.09375 668.882812 L 635.09375 663.421875 C 634.898438 663.339844 634.660156 663.28125 634.382812 663.242188 C 634.105469 663.203125 633.808594 663.183594 633.492188 663.183594 C 632.898438 663.183594 632.382812 663.28125 631.949219 663.480469 C 631.511719 663.679688 631.15625 663.914062 630.878906 664.191406 C 630.5625 664.507812 630.34375 664.867188 630.226562 665.261719 C 630.066406 665.65625 629.988281 666.054688 629.988281 666.449219 C 629.988281 666.804688 630.007812 667.160156 630.046875 667.519531 C 630.085938 667.835938 630.125 668.132812 630.167969 668.410156 C 630.246094 668.726562 630.304688 669.023438 630.34375 669.300781 C 630.660156 669.378906 631.117188 669.496094 631.710938 669.65625 C 632.34375 669.8125 632.839844 669.933594 633.195312 670.011719 C 633.589844 670.089844 633.90625 670.128906 634.144531 670.128906 Z M 634.144531 670.128906 "/>
<path style=" stroke:none;fill-rule:nonzero;fill:url(#linear42);" d="M 645.425781 652.195312 C 644.597656 652.195312 644.179688 652.710938 644.179688 653.742188 L 644.179688 667.636719 C 644.179688 668.113281 644.0625 668.488281 643.824219 668.765625 C 643.585938 669.042969 643.210938 669.179688 642.695312 669.179688 L 640.675781 669.179688 L 640.675781 672.863281 L 643.410156 672.863281 C 644.082031 672.863281 644.714844 672.722656 645.308594 672.445312 C 645.902344 672.210938 646.359375 671.871094 646.675781 671.4375 C 647.1875 671.871094 647.722656 672.210938 648.277344 672.445312 C 648.871094 672.722656 649.386719 672.863281 649.820312 672.863281 L 650.949219 672.863281 L 650.949219 669.179688 L 649.820312 669.179688 C 649.148438 669.179688 648.59375 669.140625 648.160156 669.0625 C 647.761719 668.941406 647.566406 668.785156 647.566406 668.585938 L 647.566406 652.195312 Z M 645.425781 652.195312 "/>
<path style=" stroke:none;fill-rule:nonzero;fill:url(#linear43);" d="M 655.285156 652.195312 C 654.375 652.195312 653.917969 652.710938 653.917969 653.742188 L 653.917969 666.925781 C 653.917969 667.675781 653.742188 668.230469 653.386719 668.585938 C 652.988281 668.984375 652.375 669.179688 651.542969 669.179688 L 649.882812 669.179688 L 649.882812 672.863281 L 651.542969 672.863281 C 652.691406 672.863281 653.640625 672.703125 654.394531 672.386719 C 655.105469 672.070312 655.679688 671.613281 656.117188 671.019531 C 656.589844 670.425781 656.90625 669.695312 657.066406 668.824219 C 657.226562 667.992188 657.304688 667.042969 657.304688 665.972656 L 657.304688 652.195312 Z M 655.285156 652.195312 "/>
<path style=" stroke:none;fill-rule:nonzero;fill:rgb(7.058824%,16.862745%,26.27451%);fill-opacity:1;" d="M 496.554688 508.195312 L 483.195312 508.195312 L 483.195312 519.894531 L 496.554688 519.894531 Z M 516.628906 508.195312 L 503.324219 508.195312 L 503.324219 519.832031 L 516.628906 519.832031 Z M 503.324219 537.945312 L 516.628906 537.945312 L 516.628906 526.246094 L 503.324219 526.246094 Z M 483.195312 537.945312 L 496.554688 537.945312 L 496.554688 526.246094 L 483.195312 526.246094 Z M 483.195312 537.945312 "/>
<path style=" stroke:none;fill-rule:nonzero;fill:url(#linear44);" d="M 514.964844 377.671875 L 539.074219 397.210938 L 539.074219 391.863281 L 514.964844 372.386719 Z M 514.964844 377.671875 "/>
<path style=" stroke:none;fill-rule:nonzero;fill:url(#linear45);" d="M 514.964844 388.0625 L 539.074219 407.601562 L 539.074219 402.257812 L 514.964844 382.777344 Z M 514.964844 388.0625 "/>
<path style=" stroke:none;fill-rule:nonzero;fill:url(#linear46);" d="M 514.964844 399.464844 L 539.074219 418.941406 L 539.074219 413.597656 L 514.964844 394.121094 Z M 514.964844 399.464844 "/>
<path style=" stroke:none;fill-rule:nonzero;fill:url(#linear47);" d="M 514.964844 367.042969 L 539.074219 386.519531 L 539.074219 381.175781 L 514.964844 361.699219 Z M 514.964844 367.042969 "/>
<path style=" stroke:none;fill-rule:nonzero;fill:url(#linear48);" d="M 437.410156 329.453125 L 437.410156 380.523438 L 437.828125 447.921875 C 439.90625 447.089844 441.984375 441.035156 444.003906 440.203125 L 444.003906 331.292969 L 468.050781 310.867188 L 468.050781 431.292969 C 476.007812 428.445312 483.789062 425.179688 490.261719 420.488281 L 490.261719 318.050781 L 474.050781 299.464844 Z M 437.410156 329.453125 "/>
<path style=" stroke:none;fill-rule:nonzero;fill:url(#linear49);" d="M 447.03125 324.703125 L 447.03125 438.953125 C 447.664062 438.71875 448.296875 438.460938 448.929688 438.183594 C 449.367188 438.023438 449.800781 437.847656 450.238281 437.648438 L 450.238281 324.703125 Z M 447.03125 324.703125 "/>
<path style=" stroke:none;fill-rule:nonzero;fill:url(#linear50);" d="M 453.621094 316.804688 L 453.621094 436.402344 C 454.652344 436.003906 455.699219 435.628906 456.769531 435.273438 L 456.769531 316.804688 Z M 453.621094 316.804688 "/>
<path style=" stroke:none;fill-rule:nonzero;fill:url(#linear51);" d="M 460.15625 311.9375 L 460.15625 434.085938 C 461.222656 433.730469 462.292969 433.351562 463.359375 432.957031 L 463.359375 311.9375 Z M 460.15625 311.9375 "/>
<path style=" stroke:none;fill-rule:nonzero;fill:url(#linear52);" d="M 437.765625 444.597656 L 437.765625 497.269531 L 501.070312 447.742188 L 546.554688 485.09375 L 546.554688 494.894531 L 501.070312 459.324219 L 444.0625 503.917969 L 408.015625 503.917969 L 408.015625 519.894531 L 450.238281 519.894531 L 501.070312 479.75 L 551.304688 519.894531 L 563.0625 519.894531 L 563.0625 475.355469 L 501.070312 429.097656 L 454.039062 465.023438 L 454.039062 453.085938 L 501.070312 416.332031 L 563.0625 464.667969 L 563.0625 445.011719 L 501.070312 397.089844 Z M 437.765625 444.597656 "/>
<path style=" stroke:none;fill-rule:nonzero;fill:url(#linear53);" d="M 498.992188 389.015625 L 508.3125 397.089844 L 508.3125 347.921875 L 545.722656 378.265625 L 545.722656 444.238281 L 555.046875 444.238281 L 555.046875 374.882812 L 498.992188 325.890625 Z M 498.992188 389.015625 "/>
<g clip-path="url(#clip1)" clip-rule="nonzero">
<use xlink:href="#surface5" mask="url(#mask0)"/>
<use xlink:href="#surface8" mask="url(#mask1)"/>
<use xlink:href="#surface11" mask="url(#mask2)"/>
</g>
<path style=" stroke:none;fill-rule:nonzero;fill:url(#linear57);" d="M 399.820312 416.925781 L 399.820312 519.894531 L 416.210938 519.894531 L 416.210938 426.425781 L 439.667969 412.886719 L 439.667969 393.941406 Z M 399.820312 416.925781 "/>
<path style=" stroke:none;fill-rule:nonzero;fill:url(#linear58);" d="M 560.390625 410.867188 L 583.609375 426.425781 L 583.609375 523.039062 L 499.941406 571.378906 L 433.371094 532.957031 L 400.59375 532.957031 L 499.941406 590.320312 L 600.058594 532.542969 L 600.058594 416.925781 L 560.390625 391.925781 Z M 560.390625 410.867188 "/>
<path style=" stroke:none;fill-rule:evenodd;fill:rgb(7.058824%,16.862745%,26.27451%);fill-opacity:1;" d="M 347.269531 700.832031 C 346.4375 700.832031 345.664062 700.710938 345.070312 700.535156 L 345.25 698.515625 C 345.84375 698.8125 346.554688 698.992188 347.328125 698.992188 C 348.21875 698.992188 348.992188 698.574219 348.992188 697.566406 C 348.992188 695.425781 344.894531 696.4375 344.894531 692.816406 C 344.894531 690.855469 346.199219 689.488281 348.574219 689.488281 C 349.109375 689.488281 349.761719 689.609375 350.296875 689.726562 L 350.117188 691.566406 C 349.605469 691.371094 349.050781 691.269531 348.457031 691.269531 C 347.386719 691.269531 346.851562 691.804688 346.851562 692.578125 C 346.851562 694.535156 351.007812 693.824219 351.007812 697.269531 C 351.007812 699.289062 349.523438 700.832031 347.269531 700.832031 Z M 367.101562 700.652344 L 366.449219 698.398438 L 362.765625 698.398438 L 362.054688 700.652344 L 360.214844 700.652344 L 363.539062 689.667969 L 365.738281 689.667969 L 369.179688 700.652344 Z M 364.964844 693.46875 C 364.785156 692.933594 364.667969 692.457031 364.546875 691.984375 C 364.429688 692.457031 364.3125 692.933594 364.191406 693.46875 L 363.183594 696.734375 L 365.972656 696.734375 Z M 381.472656 700.710938 C 380.464844 700.710938 379.574219 700.652344 378.800781 700.59375 L 378.800781 689.726562 C 379.511719 689.667969 380.699219 689.609375 381.886719 689.609375 C 384.917969 689.609375 386.816406 691.152344 386.816406 694.953125 C 386.816406 698.695312 384.621094 700.710938 381.472656 700.710938 Z M 381.769531 691.390625 C 381.355469 691.390625 380.9375 691.390625 380.640625 691.449219 L 380.640625 698.8125 C 380.878906 698.871094 381.292969 698.871094 381.652344 698.871094 C 383.492188 698.871094 384.796875 697.742188 384.796875 695.128906 C 384.796875 692.816406 383.964844 691.390625 381.769531 691.390625 Z M 396.972656 700.652344 L 396.972656 689.667969 L 402.257812 689.667969 L 402.257812 691.449219 L 398.871094 691.449219 L 398.871094 694.121094 L 402.078125 694.121094 L 402.078125 695.84375 L 398.871094 695.84375 L 398.871094 698.8125 L 402.257812 698.8125 L 402.257812 700.652344 Z M 412.707031 700.652344 L 412.707031 689.667969 L 417.933594 689.667969 L 417.933594 691.449219 L 414.546875 691.449219 L 414.546875 694.121094 L 417.816406 694.121094 L 417.816406 695.84375 L 414.546875 695.84375 L 414.546875 698.8125 L 417.933594 698.8125 L 417.933594 700.652344 Z M 437.707031 700.652344 L 436.996094 695.367188 C 436.875 694.359375 436.757812 693.347656 436.699219 692.636719 C 436.578125 693.289062 436.402344 694.238281 436.164062 695.128906 L 434.5625 700.652344 L 432.777344 700.652344 L 431.234375 695.488281 C 430.996094 694.535156 430.761719 693.527344 430.640625 692.636719 L 430.582031 692.636719 C 430.523438 693.585938 430.464844 694.597656 430.34375 695.546875 L 429.808594 700.652344 L 427.910156 700.652344 L 429.394531 689.667969 L 431.589844 689.667969 L 433.195312 695.367188 C 433.371094 695.960938 433.609375 696.914062 433.730469 697.625 L 433.789062 697.625 C 433.964844 696.851562 434.144531 696.019531 434.324219 695.367188 L 435.984375 689.667969 L 438.125 689.667969 L 439.667969 700.652344 Z M 465.855469 700.773438 C 462.46875 700.773438 461.402344 698.21875 461.402344 695.488281 C 461.402344 692.042969 463.003906 689.609375 466.210938 689.609375 C 466.925781 689.609375 467.695312 689.726562 468.289062 689.90625 L 468.050781 691.863281 C 467.457031 691.628906 466.804688 691.449219 466.152344 691.449219 C 464.3125 691.449219 463.421875 692.992188 463.421875 695.128906 C 463.421875 697.507812 464.3125 698.871094 466.269531 698.871094 C 466.863281 698.871094 467.578125 698.695312 468.113281 698.398438 L 468.410156 700.238281 C 467.695312 700.59375 466.746094 700.773438 465.855469 700.773438 Z M 482.480469 700.832031 C 479.511719 700.832031 478.085938 698.695312 478.085938 695.308594 C 478.085938 691.6875 480.226562 689.488281 482.839844 689.488281 C 485.75 689.488281 487.234375 691.628906 487.234375 695.011719 C 487.234375 698.632812 485.09375 700.832031 482.480469 700.832031 Z M 482.660156 691.390625 C 481.175781 691.390625 480.046875 692.695312 480.046875 695.070312 C 480.046875 697.386719 480.878906 698.871094 482.660156 698.871094 C 484.085938 698.871094 485.214844 697.625 485.214844 695.25 C 485.214844 692.933594 484.382812 691.390625 482.660156 691.390625 Z M 502.910156 700.652344 L 499.882812 694.597656 C 499.523438 693.824219 499.226562 693.171875 499.050781 692.457031 C 499.109375 693.410156 499.109375 696.082031 499.109375 697.683594 L 499.109375 700.652344 L 497.328125 700.652344 L 497.328125 689.667969 L 499.820312 689.667969 L 502.730469 695.605469 C 503.085938 696.257812 503.386719 697.03125 503.683594 697.742188 C 503.621094 696.675781 503.5625 693.941406 503.5625 692.457031 L 503.5625 689.667969 L 505.34375 689.667969 L 505.34375 700.652344 Z M 517.992188 700.832031 C 517.101562 700.832031 516.390625 700.710938 515.738281 700.535156 L 515.972656 698.515625 C 516.566406 698.8125 517.28125 698.992188 518.050781 698.992188 C 518.941406 698.992188 519.714844 698.574219 519.714844 697.566406 C 519.714844 695.425781 515.617188 696.378906 515.617188 692.816406 C 515.617188 690.855469 516.925781 689.488281 519.300781 689.488281 C 519.773438 689.488281 520.488281 689.609375 521.019531 689.726562 L 520.84375 691.566406 C 520.328125 691.371094 519.773438 691.269531 519.179688 691.269531 C 518.113281 691.269531 517.578125 691.804688 517.578125 692.578125 C 517.578125 694.535156 521.734375 693.824219 521.734375 697.269531 C 521.734375 699.289062 520.25 700.832031 517.992188 700.832031 Z M 535.511719 691.507812 L 535.511719 700.652344 L 533.609375 700.652344 L 533.609375 691.507812 L 531.117188 691.507812 L 531.117188 689.667969 L 538.003906 689.667969 L 538.003906 691.507812 Z M 552.492188 700.652344 L 549.882812 696.140625 L 549.703125 696.140625 L 549.703125 700.652344 L 547.863281 700.652344 L 547.863281 689.667969 C 548.632812 689.667969 549.523438 689.609375 550.652344 689.609375 C 552.789062 689.609375 554.15625 690.4375 554.15625 692.695312 C 554.15625 694.300781 553.148438 695.488281 551.78125 695.785156 C 552.078125 696.140625 552.316406 696.554688 552.554688 696.972656 L 554.808594 700.652344 Z M 550.476562 691.332031 C 550.179688 691.332031 549.941406 691.390625 549.703125 691.390625 L 549.703125 694.535156 C 549.882812 694.597656 550.117188 694.597656 550.414062 694.597656 C 551.542969 694.597656 552.195312 693.941406 552.195312 692.933594 C 552.195312 691.863281 551.625 691.332031 550.476562 691.332031 Z M 568.410156 700.832031 C 565.320312 700.832031 564.609375 698.929688 564.609375 696.851562 L 564.609375 689.667969 L 566.507812 689.667969 L 566.507812 696.734375 C 566.507812 698.101562 566.925781 699.050781 568.527344 699.050781 C 569.953125 699.050781 570.546875 698.398438 570.546875 696.496094 L 570.546875 689.667969 L 572.386719 689.667969 L 572.386719 696.378906 C 572.386719 699.40625 570.960938 700.832031 568.410156 700.832031 Z M 587.054688 700.773438 C 583.667969 700.773438 582.601562 698.21875 582.601562 695.488281 C 582.601562 692.042969 584.203125 689.609375 587.46875 689.609375 C 588.125 689.609375 588.894531 689.726562 589.488281 689.90625 L 589.25 691.863281 C 588.65625 691.628906 588.003906 691.449219 587.351562 691.449219 C 585.511719 691.449219 584.621094 692.992188 584.621094 695.128906 C 584.621094 697.507812 585.511719 698.871094 587.46875 698.871094 C 588.0625 698.871094 588.835938 698.695312 589.3125 698.398438 L 589.609375 700.238281 C 588.894531 700.59375 588.003906 700.773438 587.054688 700.773438 Z M 603.386719 691.507812 L 603.386719 700.652344 L 601.542969 700.652344 L 601.542969 691.507812 L 598.992188 691.507812 L 598.992188 689.667969 L 605.9375 689.667969 L 605.9375 691.507812 Z M 615.738281 689.667969 L 617.578125 689.667969 L 617.578125 700.652344 L 615.738281 700.652344 Z M 632.125 700.773438 C 629.15625 700.773438 627.671875 698.632812 627.671875 695.308594 C 627.671875 691.6875 629.808594 689.488281 632.421875 689.488281 C 635.390625 689.488281 636.875 691.566406 636.875 694.953125 C 636.875 698.574219 634.679688 700.773438 632.125 700.773438 Z M 632.304688 691.390625 C 630.820312 691.390625 629.691406 692.695312 629.691406 695.011719 C 629.691406 697.386719 630.523438 698.871094 632.246094 698.871094 C 633.730469 698.871094 634.859375 697.566406 634.859375 695.191406 C 634.859375 692.875 634.027344 691.390625 632.304688 691.390625 Z M 652.492188 700.59375 L 649.523438 694.535156 C 649.167969 693.765625 648.871094 693.113281 648.632812 692.398438 C 648.695312 693.410156 648.753906 696.019531 648.753906 697.625 L 648.753906 700.59375 L 646.972656 700.59375 L 646.972656 689.667969 L 649.40625 689.667969 L 652.375 695.546875 C 652.671875 696.199219 653.027344 697.03125 653.265625 697.742188 C 653.207031 696.613281 653.207031 693.941406 653.207031 692.398438 L 653.207031 689.667969 L 654.988281 689.667969 L 654.988281 700.59375 Z M 652.492188 700.59375 "/>
</g>
</svg>
