<svg xmlns="http://www.w3.org/2000/svg" viewBox="0 0 32 40" x="0px" y="0px"><g data-name="construction vest"><path d="M26.626,30H16a1,1,0,0,1-1-1V10.892a1,1,0,0,1,.139-.508l4.652-7.892A1,1,0,0,1,20.652,2h.618A3,3,0,0,1,24.2,4.394,6.883,6.883,0,0,0,28.92,9.586a1,1,0,0,1,.706.956V27A3,3,0,0,1,26.626,30ZM17,28h9.626a1,1,0,0,0,1-1V11.247A8.879,8.879,0,0,1,22.242,4.8,1,1,0,0,0,21.27,4h-.047L17,11.164Z"/><path d="M16,30H5.374a3,3,0,0,1-3-3V10.542a1,1,0,0,1,.706-.956A6.883,6.883,0,0,0,7.8,4.394,3,3,0,0,1,10.73,2h.618a1,1,0,0,1,.861.492l4.652,7.892a1,1,0,0,1,.139.508V29A1,1,0,0,1,16,30ZM4.374,11.247V27a1,1,0,0,0,1,1H15V11.164L10.73,4a1,1,0,0,0-.972.8A8.879,8.879,0,0,1,4.374,11.247Z"/><path d="M21.54,4H10.46a1,1,0,0,1,0-2H21.54a1,1,0,0,1,0,2Z"/><path d="M11.339,17.709H3.374a1,1,0,1,1,0-2h7.965a1,1,0,1,1,0,2Z"/><path d="M11.339,23.752H3.374a1,1,0,1,1,0-2h7.965a1,1,0,1,1,0,2Z"/><path d="M28.481,17.709H20.516a1,1,0,0,1,0-2h7.965a1,1,0,0,1,0,2Z"/><path d="M28.481,23.752H20.516a1,1,0,0,1,0-2h7.965a1,1,0,0,1,0,2Z"/></g><text x="0" y="47" fill="#000000" font-size="5px" font-weight="bold" font-family="'Helvetica Neue', Helvetica, Arial-Unicode, Arial, Sans-serif">Created by Nurfajri Aldi</text><text x="0" y="52" fill="#000000" font-size="5px" font-weight="bold" font-family="'Helvetica Neue', Helvetica, Arial-Unicode, Arial, Sans-serif">from the Noun Project</text></svg>